<?xml version="1.0" encoding="UTF-8" standalone="no"?>
<!DOCTYPE svg PUBLIC "-//W3C//DTD SVG 1.1//EN" "http://www.w3.org/Graphics/SVG/1.1/DTD/svg11.dtd">
<svg xmlns="http://www.w3.org/2000/svg" version="1.1" viewBox="0.00 0.00 737.00 737.00">
<path fill="#000000" fill-opacity="0.749" d="
  M 519.67 53.03
  Q 521.37 55.45 524.04 54.61
  A 1.25 1.25 0.0 0 1 525.37 54.99
  L 526.72 56.55
  Q 527.16 57.07 526.49 57.07
  L 510.00 57.08
  Q 509.45 57.08 509.05 56.69
  L 503.19 50.94
  Q 502.82 50.57 502.89 50.05
  C 503.06 48.89 503.32 47.44 502.64 46.41
  C 499.68 41.92 493.57 46.15 495.99 50.05
  Q 497.53 52.52 500.23 51.92
  Q 500.96 51.76 501.49 52.28
  L 505.75 56.49
  Q 506.37 57.10 505.50 57.10
  L 475.73 57.03
  A 0.84 0.82 12.0 0 0 474.97 57.51
  L 464.20 80.70
  A 0.62 0.62 0.0 0 1 463.20 80.87
  L 453.69 71.37
  A 1.46 1.45 35.5 0 1 453.41 69.72
  Q 457.97 60.22 462.20 50.87
  Q 462.98 49.16 464.19 48.14
  Q 466.62 46.09 468.68 43.85
  A 1.82 1.81 -68.3 0 1 470.04 43.26
  L 479.96 43.31
  Q 480.66 43.32 480.16 43.82
  L 464.21 59.77
  Q 463.72 60.27 463.03 60.12
  C 459.41 59.33 456.90 63.23 459.13 66.16
  C 461.11 68.75 464.69 67.88 465.61 64.81
  C 465.93 63.73 465.47 63.02 465.47 62.01
  Q 465.47 61.60 465.76 61.32
  L 483.09 43.98
  A 2.43 2.41 -67.4 0 1 484.80 43.27
  L 532.48 43.28
  A 1.99 1.95 67.1 0 1 533.87 43.86
  L 555.79 65.77
  Q 556.51 66.49 557.53 66.49
  L 570.90 66.48
  Q 571.40 66.48 571.72 66.86
  L 581.16 77.82
  Q 581.31 78.00 581.13 78.16
  L 580.94 78.33
  Q 580.76 78.49 580.63 78.29
  Q 579.03 75.67 576.56 75.71
  C 572.33 75.78 571.53 81.83 575.49 82.82
  Q 578.35 83.53 579.91 81.43
  A 2.69 2.69 0.0 0 1 584.10 81.28
  L 604.95 105.55
  Q 606.39 107.23 604.19 106.97
  Q 602.17 106.74 600.09 106.93
  Q 599.56 106.98 599.18 106.60
  L 591.16 98.68
  A 2.16 2.12 67.1 0 0 589.65 98.05
  L 580.77 98.00
  A 2.03 2.03 0.0 0 1 579.25 97.29
  L 545.39 57.50
  Q 545.01 57.06 544.43 57.06
  L 530.88 57.09
  A 1.04 1.03 -22.8 0 1 530.16 56.80
  L 526.61 53.38
  A 1.03 1.03 0.0 0 1 526.41 52.17
  Q 526.88 51.24 526.56 50.22
  C 524.66 44.09 516.48 48.47 519.67 53.03
  Z"
/>
<path fill="#000000" fill-opacity="0.749" d="
  M 560.17 59.70
  L 565.73 59.76
  Q 565.83 59.76 565.89 59.84
  L 569.19 63.97
  A 0.15 0.14 -18.4 0 1 569.07 64.20
  Q 563.46 64.27 557.85 64.24
  Q 557.29 64.24 556.90 63.84
  L 537.00 43.96
  Q 536.33 43.29 537.29 43.28
  L 546.28 43.26
  Q 547.54 43.25 547.41 44.51
  C 547.23 46.29 547.01 47.46 548.48 48.88
  Q 553.37 53.63 558.50 58.98
  Q 559.19 59.69 560.17 59.70
  Z"
/>
<path fill="#000000" fill-opacity="0.749" d="
  M 550.70 48.03
  Q 549.84 47.17 549.52 45.99
  Q 549.14 44.59 549.87 43.68
  A 1.27 1.27 0.0 0 1 551.83 43.65
  L 563.31 56.97
  Q 563.66 57.39 563.11 57.39
  L 560.55 57.40
  Q 559.99 57.40 559.59 57.00
  L 550.70 48.03
  Z"
/>
<rect fill="#000000" fill-opacity="0.749" x="-1.52" y="-1.54" transform="translate(499.28,48.28) rotate(40.9)" width="3.04" height="3.08" rx="1.07"/>
<circle fill="#000000" fill-opacity="0.749" cx="522.76" cy="51.02" r="1.59"/>
<circle fill="#000000" fill-opacity="0.749" cx="462.02" cy="63.79" r="1.58"/>
<path fill="#000000" fill-opacity="0.749" d="
  M 452.02 83.98
  L 447.30 83.82
  A 0.30 0.30 0.0 0 1 447.04 83.40
  L 451.78 73.14
  A 0.30 0.30 0.0 0 1 452.26 73.05
  L 462.65 83.43
  A 0.30 0.30 0.0 0 1 462.71 83.77
  L 459.49 90.74
  A 0.30 0.30 0.0 0 1 459.01 90.83
  L 452.22 84.06
  A 0.30 0.30 0.0 0 0 452.02 83.98
  Z"
/>
<circle fill="#000000" fill-opacity="0.749" cx="576.69" cy="79.32" r="1.62"/>
<path fill="#000000" fill-opacity="0.749" d="
  M 450.83 108.07
  L 442.51 99.68
  A 0.34 0.34 0.0 0 0 442.29 99.58
  L 440.04 99.49
  A 0.34 0.34 0.0 0 1 439.75 99.01
  L 445.67 86.31
  A 0.34 0.34 0.0 0 1 445.97 86.12
  L 450.96 86.05
  A 0.34 0.34 0.0 0 1 451.20 86.15
  L 458.13 93.00
  A 0.34 0.34 0.0 0 1 458.20 93.39
  L 451.38 107.98
  A 0.34 0.34 0.0 0 1 450.83 108.07
  Z"
/>
<path fill="#000000" fill-opacity="0.749" d="
  M 582.51 101.21
  Q 581.62 100.74 583.22 100.40
  Q 583.81 100.27 584.42 100.27
  L 589.06 100.31
  A 1.94 1.94 0.0 0 1 590.42 100.89
  L 597.66 108.21
  A 2.68 2.65 -22.1 0 0 599.56 109.00
  L 607.35 109.00
  Q 607.84 109.00 608.16 109.37
  L 616.17 118.63
  A 0.31 0.31 0.0 0 1 615.94 119.15
  L 598.29 119.20
  A 1.01 1.00 69.3 0 1 597.50 118.84
  Q 590.46 110.35 582.73 101.39
  Q 582.63 101.28 582.51 101.21
  Z"
/>
<path fill="#000000" fill-opacity="0.749" d="
  M 438.82 106.16
  L 437.06 106.19
  Q 436.33 106.20 436.64 105.54
  L 437.91 102.90
  A 2.54 2.54 0.0 0 1 441.99 102.21
  L 450.13 110.34
  Q 450.30 110.50 450.20 110.71
  L 448.29 114.61
  A 0.21 0.20 -54.5 0 1 447.96 114.67
  L 439.72 106.53
  Q 439.35 106.15 438.82 106.16
  Z"
/>
<path fill="#000000" fill-opacity="0.749" d="
  M 437.70 113.93
  Q 436.39 112.55 434.13 112.83
  Q 432.96 112.98 433.60 111.99
  Q 434.24 111.02 434.58 109.93
  A 2.63 2.62 31.0 0 1 438.93 108.85
  L 447.06 116.90
  Q 447.23 117.07 447.12 117.28
  L 445.20 121.17
  Q 445.08 121.40 444.89 121.22
  Q 441.17 117.58 437.70 113.93
  Z"
/>
<path fill="#000000" fill-opacity="0.749" d="
  M 433.62 119.92
  C 430.90 119.73 428.06 119.78 425.30 119.99
  Q 422.05 120.24 424.84 118.55
  L 430.33 115.23
  Q 430.71 115.00 431.15 115.00
  L 435.03 115.02
  Q 435.60 115.02 436.00 115.42
  L 444.23 123.59
  A 0.41 0.41 0.0 0 1 443.87 124.28
  Q 441.88 123.90 440.42 125.10
  A 0.89 0.88 -41.9 0 1 439.24 125.04
  L 434.43 120.29
  Q 434.09 119.96 433.62 119.92
  Z"
/>
<path fill="#000000" fill-opacity="0.749" d="
  M 628.23 159.58
  L 512.44 159.41
  A 0.86 0.86 0.0 0 1 511.58 158.50
  L 511.66 156.74
  Q 511.70 156.05 512.39 156.04
  C 551.29 155.68 590.20 155.66 627.97 155.78
  Q 628.84 155.78 628.99 154.92
  L 629.18 153.72
  Q 629.32 152.87 628.47 152.83
  L 627.02 152.77
  Q 626.40 152.74 625.99 152.27
  L 623.16 148.92
  A 0.39 0.39 0.0 0 1 623.46 148.27
  L 628.18 148.31
  Q 629.00 148.32 629.16 147.52
  L 629.24 147.10
  Q 629.44 146.03 628.35 146.03
  L 621.44 146.02
  Q 620.69 146.02 620.20 145.45
  L 617.32 142.06
  Q 616.83 141.49 617.58 141.49
  L 628.07 141.49
  Q 629.13 141.49 629.20 140.43
  L 629.23 140.09
  A 0.70 0.70 0.0 0 0 628.53 139.34
  L 615.52 139.35
  Q 615.04 139.35 614.74 138.99
  L 600.36 122.13
  Q 599.63 121.28 600.75 121.28
  L 617.71 121.31
  A 1.71 1.70 -19.8 0 1 619.02 121.92
  C 631.43 136.73 644.86 151.79 657.30 167.20
  A 1.73 1.72 70.5 0 1 655.96 170.01
  L 621.83 170.01
  Q 621.27 170.01 621.07 169.48
  Q 619.69 165.78 615.68 167.00
  Q 614.99 167.21 614.63 167.83
  L 613.77 169.34
  Q 613.39 170.00 612.64 170.00
  L 552.86 170.00
  Q 552.32 170.00 551.94 169.60
  L 549.85 167.38
  A 2.91 2.86 -21.2 0 0 547.74 166.47
  L 511.04 166.37
  Q 510.64 166.37 510.81 166.01
  Q 511.62 164.30 511.70 162.38
  Q 511.72 161.86 512.24 161.86
  L 628.36 161.79
  A 0.85 0.85 0.0 0 0 629.21 160.88
  L 629.19 160.48
  A 0.96 0.96 0.0 0 0 628.23 159.58
  Z"
/>
<path fill="#000000" fill-opacity="0.749" d="
  M 431.23 126.82
  A 1.41 1.39 -23.3 0 0 430.28 126.45
  L 413.23 126.53
  Q 412.27 126.54 413.11 126.07
  C 415.66 124.63 418.52 121.91 421.48 121.96
  Q 427.11 122.04 431.94 122.00
  A 2.80 2.78 -18.8 0 1 434.21 123.11
  Q 435.59 124.93 437.35 126.10
  A 0.63 0.62 45.2 0 1 437.35 127.15
  L 434.68 128.86
  Q 433.94 129.33 433.30 128.73
  L 431.23 126.82
  Z"
/>
<path fill="#000000" fill-opacity="0.749" d="
  M 430.86 129.56
  Q 431.46 129.73 431.54 130.23
  Q 431.62 130.68 431.23 130.94
  L 427.83 133.16
  A 0.72 0.67 26.9 0 1 427.45 133.27
  L 402.85 133.37
  Q 401.90 133.37 402.70 132.85
  L 408.51 129.07
  Q 408.99 128.76 409.56 128.76
  Q 419.52 128.73 429.37 128.76
  Q 429.74 128.76 430.06 128.95
  Q 430.24 129.05 430.36 129.22
  Q 430.55 129.48 430.86 129.56
  Z"
/>
<path fill="#000000" fill-opacity="0.749" d="
  M 416.93 140.03
  L 392.50 140.07
  A 0.36 0.36 0.0 0 1 392.31 139.40
  L 398.45 135.53
  A 0.36 0.36 0.0 0 1 398.64 135.47
  L 423.36 135.49
  A 0.36 0.36 0.0 0 1 423.55 136.16
  L 417.11 139.98
  A 0.36 0.36 0.0 0 1 416.93 140.03
  Z"
/>
<path fill="#000000" fill-opacity="0.749" d="
  M 394.80 146.49
  C 393.50 146.67 392.77 147.91 391.93 148.82
  Q 391.56 149.22 391.00 149.22
  L 378.20 149.19
  Q 377.24 149.19 378.04 148.67
  L 387.27 142.70
  A 2.07 2.02 -60.9 0 1 388.38 142.37
  L 412.45 142.30
  Q 413.92 142.30 412.68 143.09
  L 400.01 151.22
  A 0.35 0.35 0.0 0 1 399.47 150.95
  Q 399.10 145.91 394.80 146.49
  Z"
/>
<path fill="#000000" fill-opacity="0.749" d="
  M 393.96 150.64
  A 0.55 0.55 0.0 0 1 393.90 149.86
  L 394.60 149.05
  A 1.34 1.29 -49.4 0 1 396.45 148.87
  L 396.82 149.18
  A 1.34 1.29 -49.4 0 1 396.92 151.04
  L 396.23 151.85
  A 0.55 0.55 0.0 0 1 395.45 151.91
  L 393.96 150.64
  Z"
/>
<path fill="#000000" fill-opacity="0.749" d="
  M 394.71 154.60
  L 363.31 174.70
  A 0.81 0.81 0.0 0 1 362.30 174.59
  L 353.24 165.59
  A 0.73 0.73 0.0 0 1 353.36 164.46
  L 373.37 151.60
  Q 373.92 151.25 374.57 151.25
  L 391.26 151.25
  Q 391.87 151.25 392.17 151.78
  Q 393.00 153.21 394.66 153.94
  A 0.38 0.37 -49.5 0 1 394.71 154.60
  Z"
/>
<path fill="#000000" fill-opacity="0.749" d="
  M 347.34 177.60
  C 346.52 178.04 346.21 178.83 345.56 179.39
  Q 345.14 179.75 344.58 179.75
  L 331.97 179.83
  Q 328.25 179.85 331.60 178.23
  Q 333.29 177.42 334.92 176.34
  Q 342.08 171.61 350.05 166.62
  Q 350.81 166.14 351.45 166.78
  Q 355.80 171.19 360.21 175.61
  Q 360.46 175.87 360.52 176.22
  Q 360.55 176.42 360.38 176.54
  Q 359.60 177.05 353.13 181.36
  A 0.11 0.10 73.3 0 1 352.97 181.27
  C 352.89 178.34 350.08 176.09 347.34 177.60
  Z"
/>
<path fill="#000000" fill-opacity="0.749" d="
  M 525.09 169.70
  Q 523.82 169.68 524.05 170.94
  Q 524.18 171.62 524.10 172.25
  Q 523.99 173.15 522.96 173.15
  Q 515.72 173.18 509.68 173.15
  Q 509.21 173.15 509.30 172.69
  L 510.05 169.05
  A 0.68 0.68 0.0 0 1 510.72 168.50
  L 548.35 168.65
  A 0.60 0.60 0.0 0 1 548.94 169.16
  L 548.98 169.42
  Q 549.03 169.75 548.69 169.76
  Q 537.11 169.89 525.09 169.70
  Z"
/>
<ellipse fill="#000000" fill-opacity="0.749" cx="0.00" cy="0.00" transform="translate(617.33,169.28) rotate(-1.0)" rx="1.47" ry="0.50"/>
<path fill="#000000" fill-opacity="0.749" d="
  M 520.29 186.56
  L 506.74 186.55
  A 0.60 0.60 0.0 0 1 506.16 185.82
  L 508.49 175.72
  A 0.60 0.60 0.0 0 1 509.08 175.26
  L 522.50 175.25
  A 0.60 0.60 0.0 0 1 523.09 175.98
  L 520.87 186.09
  A 0.60 0.60 0.0 0 1 520.29 186.56
  Z"
/>
<rect fill="#000000" fill-opacity="0.749" x="-1.41" y="-1.58" transform="translate(349.08,180.99) rotate(3.1)" width="2.82" height="3.16" rx="1.24"/>
<path fill="#000000" fill-opacity="0.749" d="
  M 345.08 182.11
  L 347.40 184.48
  A 0.32 0.32 0.0 0 1 347.34 184.97
  L 337.99 190.91
  A 0.32 0.32 0.0 0 1 337.82 190.96
  L 313.08 190.98
  A 0.32 0.32 0.0 0 1 312.91 190.39
  L 325.91 182.05
  A 0.32 0.32 0.0 0 1 326.08 182.00
  L 344.86 182.01
  A 0.32 0.32 0.0 0 1 345.08 182.11
  Z"
/>
<path fill="#000000" fill-opacity="0.749" d="
  M 514.49 200.29
  L 517.05 202.96
  Q 517.15 203.07 517.09 203.20
  Q 517.03 203.34 516.93 203.43
  Q 516.80 203.56 516.76 203.74
  Q 512.82 220.82 508.90 237.76
  A 0.37 0.37 0.0 0 1 508.28 237.93
  L 499.14 228.80
  Q 498.71 228.38 498.71 227.77
  Q 498.67 224.76 498.64 221.37
  Q 498.61 218.23 499.40 214.92
  Q 502.73 200.96 505.27 189.50
  Q 505.41 188.86 506.06 188.86
  L 519.70 188.85
  A 0.47 0.47 0.0 0 1 520.16 189.44
  L 517.53 199.76
  Q 517.23 200.94 516.77 199.71
  Q 516.60 199.25 516.12 198.99
  Q 515.39 198.61 514.75 199.13
  L 514.55 199.29
  Q 513.98 199.76 514.49 200.29
  Z"
/>
<path fill="#000000" fill-opacity="0.749" d="
  M 302.06 197.44
  C 304.15 196.04 307.72 193.03 310.21 193.01
  Q 322.48 192.91 333.32 193.12
  Q 334.30 193.13 333.69 193.90
  Q 333.41 194.24 333.01 194.28
  Q 332.54 194.33 332.15 194.59
  L 326.51 198.42
  A 3.17 3.15 27.4 0 1 324.76 198.97
  Q 313.70 199.01 303.14 198.93
  Q 301.77 198.92 300.50 198.49
  Q 299.74 198.24 300.51 198.00
  C 301.07 197.82 301.55 197.78 302.06 197.44
  Z"
/>
<path fill="#000000" fill-opacity="0.749" d="
  M 307.36 210.50
  L 282.71 210.45
  A 0.31 0.31 0.0 0 1 282.55 209.88
  L 296.35 201.01
  A 0.31 0.31 0.0 0 1 296.52 200.96
  L 321.38 200.94
  A 0.31 0.31 0.0 0 1 321.54 201.51
  L 307.53 210.45
  A 0.31 0.31 0.0 0 1 307.36 210.50
  Z"
/>
<path fill="#000000" fill-opacity="0.749" d="
  M 279.61 211.86
  Q 279.78 211.60 280.02 211.43
  Q 280.69 210.98 280.58 211.77
  Q 280.54 212.06 280.50 212.36
  Q 280.43 212.93 279.91 213.10
  Q 279.25 213.32 278.56 213.19
  Q 277.93 213.07 278.42 212.65
  Q 278.98 212.17 279.61 211.86
  Z"
/>
<path fill="#000000" fill-opacity="0.749" d="
  M 303.13 213.33
  L 286.01 224.25
  A 1.44 1.42 -60.7 0 1 285.25 224.47
  L 261.21 224.44
  Q 259.82 224.44 260.99 223.69
  L 275.41 214.44
  Q 275.85 214.16 276.29 214.43
  Q 280.20 216.85 282.58 213.27
  Q 282.92 212.76 283.54 212.76
  L 302.97 212.77
  Q 304.00 212.77 303.13 213.33
  Z"
/>
<path fill="#000000" fill-opacity="0.749" d="
  M 263.52 237.46
  L 254.56 228.56
  Q 254.07 228.08 254.65 227.71
  L 257.65 225.82
  A 0.69 0.68 53.0 0 1 258.53 225.95
  C 258.85 226.32 259.43 226.55 259.91 226.55
  Q 270.56 226.50 280.93 226.55
  Q 282.50 226.56 281.18 227.40
  L 265.13 237.63
  A 1.30 1.29 50.9 0 1 263.52 237.46
  Z"
/>
<path fill="#000000" fill-opacity="0.749" d="
  M 496.41 229.14
  L 507.74 240.45
  Q 508.15 240.87 508.02 241.45
  L 499.39 278.95
  Q 499.26 279.54 498.68 279.38
  Q 497.41 279.04 497.42 277.79
  Q 497.55 261.33 497.46 247.71
  A 1.45 1.42 23.2 0 0 497.05 246.71
  L 493.48 243.10
  A 0.99 0.97 -61.3 0 1 493.22 242.19
  L 496.03 229.25
  Q 496.12 228.85 496.41 229.14
  Z"
/>
<path fill="#000000" fill-opacity="0.749" d="
  M 252.44 229.53
  L 262.06 239.11
  A 0.34 0.34 0.0 0 1 262.01 239.64
  L 258.66 241.82
  A 0.34 0.34 0.0 0 1 258.24 241.78
  L 248.50 232.14
  A 0.34 0.34 0.0 0 1 248.56 231.61
  L 252.02 229.48
  A 0.34 0.34 0.0 0 1 252.44 229.53
  Z"
/>
<path fill="#000000" fill-opacity="0.749" d="
  M 252.33 245.45
  L 242.93 236.02
  A 0.48 0.48 0.0 0 1 243.01 235.28
  L 246.05 233.27
  A 0.48 0.48 0.0 0 1 246.66 233.33
  L 256.10 242.77
  A 0.48 0.48 0.0 0 1 256.02 243.51
  L 252.93 245.52
  A 0.48 0.48 0.0 0 1 252.33 245.45
  Z"
/>
<path fill="#000000" fill-opacity="0.749" d="
  M 240.90 237.11
  L 250.32 246.47
  A 0.48 0.48 0.0 0 1 250.24 247.21
  L 247.04 249.24
  A 0.48 0.48 0.0 0 1 246.45 249.17
  L 236.96 239.73
  A 0.48 0.48 0.0 0 1 237.05 238.97
  L 240.32 237.04
  A 0.48 0.48 0.0 0 1 240.90 237.11
  Z"
/>
<path fill="#000000" fill-opacity="0.749" d="
  M 227.02 246.74
  Q 226.65 246.67 226.56 246.36
  Q 226.41 245.89 226.82 245.63
  L 233.84 241.10
  Q 234.74 240.51 235.50 241.27
  L 244.40 250.13
  A 0.58 0.57 -38.9 0 1 244.30 251.02
  L 228.27 261.33
  A 0.44 0.43 73.7 0 1 227.60 260.96
  L 227.60 247.45
  A 0.73 0.72 5.9 0 0 227.02 246.74
  Z"
/>
<path fill="#000000" fill-opacity="0.749" d="
  M 497.36 286.37
  A 0.20 0.19 6.9 0 1 497.55 286.61
  L 495.48 295.66
  Q 495.31 296.38 494.79 295.86
  L 483.97 285.00
  Q 483.59 284.62 483.66 284.09
  Q 484.00 281.24 484.62 278.67
  Q 488.54 262.36 492.18 246.26
  Q 492.54 244.66 493.39 246.07
  Q 493.86 246.86 494.69 247.28
  Q 495.26 247.58 495.26 248.22
  L 495.27 278.20
  Q 495.27 278.70 494.87 279.01
  C 490.94 282.03 492.24 286.25 497.36 286.37
  Z"
/>
<path fill="#000000" fill-opacity="0.749" d="
  M 203.28 267.34
  C 201.65 270.75 203.75 273.98 207.49 273.07
  C 211.01 272.22 210.80 267.52 207.93 266.00
  Q 207.46 265.76 207.47 265.23
  L 207.48 258.70
  Q 207.48 258.05 208.03 257.69
  L 223.83 247.51
  A 1.06 1.06 0.0 0 1 225.46 248.40
  L 225.47 262.04
  Q 225.47 263.09 224.59 263.66
  L 189.29 286.28
  Q 188.28 286.93 188.28 285.73
  L 188.30 270.88
  Q 188.30 270.30 188.79 269.99
  L 204.54 259.92
  Q 205.22 259.48 205.23 260.30
  L 205.24 264.98
  A 1.33 1.32 -22.8 0 1 204.84 265.95
  Q 204.46 266.33 203.99 266.58
  Q 203.51 266.84 203.28 267.34
  Z"
/>
<circle fill="#000000" fill-opacity="0.749" cx="206.35" cy="269.48" r="1.61"/>
<path fill="#000000" fill-opacity="0.749" d="
  M 186.04 272.44
  L 186.20 288.11
  A 0.34 0.34 0.0 0 1 186.04 288.40
  L 180.32 292.04
  A 0.34 0.34 0.0 0 1 179.80 291.75
  L 179.79 275.99
  A 0.34 0.34 0.0 0 1 179.95 275.70
  L 185.51 272.16
  A 0.34 0.34 0.0 0 1 186.04 272.44
  Z"
/>
<path fill="#000000" fill-opacity="0.749" d="
  M 166.99 289.05
  C 168.86 288.15 169.99 285.71 168.67 283.81
  Q 168.21 283.14 168.89 282.71
  L 177.00 277.59
  Q 177.72 277.13 177.72 277.99
  L 177.71 292.88
  Q 177.71 293.69 177.02 294.13
  L 167.05 300.56
  A 0.33 0.32 -16.2 0 1 166.55 300.29
  L 166.55 289.76
  A 0.80 0.79 -13.3 0 1 166.99 289.05
  Z"
/>
<circle fill="#000000" fill-opacity="0.749" cx="496.45" cy="282.58" r="1.61"/>
<path fill="#000000" fill-opacity="0.749" d="
  M 166.32 284.42
  A 0.26 0.26 0.0 0 1 166.67 284.51
  L 166.73 284.61
  A 1.80 1.45 59.1 0 1 166.41 286.90
  L 166.11 287.09
  A 1.80 1.45 59.1 0 1 163.94 286.29
  L 163.88 286.18
  A 0.26 0.26 0.0 0 1 163.96 285.83
  L 166.32 284.42
  Z"
/>
<path fill="#000000" fill-opacity="0.749" d="
  M 493.06 303.65
  L 481.61 292.22
  A 0.32 0.32 0.0 0 1 481.53 291.91
  L 482.67 287.45
  A 0.32 0.32 0.0 0 1 483.21 287.31
  L 494.63 298.74
  A 0.32 0.32 0.0 0 1 494.72 299.05
  L 493.60 303.50
  A 0.32 0.32 0.0 0 1 493.06 303.65
  Z"
/>
<path fill="#000000" fill-opacity="0.749" d="
  M 140.52 316.99
  L 140.55 301.09
  A 0.31 0.31 0.0 0 1 140.69 300.83
  L 161.55 287.52
  A 0.31 0.31 0.0 0 1 161.90 287.53
  L 164.36 289.36
  A 0.31 0.31 0.0 0 1 164.48 289.61
  L 164.46 302.04
  A 0.31 0.31 0.0 0 1 164.32 302.30
  L 141.00 317.25
  A 0.31 0.31 0.0 0 1 140.52 316.99
  Z"
/>
<path fill="#000000" fill-opacity="0.749" d="
  M 476.37 314.46
  L 480.89 295.28
  A 0.35 0.35 0.0 0 1 481.47 295.11
  L 492.74 306.47
  A 0.35 0.35 0.0 0 1 492.83 306.80
  L 488.50 326.16
  A 0.35 0.35 0.0 0 1 487.91 326.33
  L 476.47 314.79
  A 0.35 0.35 0.0 0 1 476.37 314.46
  Z"
/>
<path fill="#000000" fill-opacity="0.749" d="
  M 115.55 322.12
  C 117.35 321.31 118.23 319.06 117.44 317.25
  Q 117.23 316.77 117.25 316.27
  Q 117.27 315.85 117.62 315.62
  L 137.58 302.88
  Q 138.20 302.48 138.20 303.22
  L 138.19 318.54
  Q 138.19 319.05 137.76 319.33
  L 115.54 333.56
  A 0.39 0.39 0.0 0 1 114.94 333.23
  L 114.97 323.00
  A 0.98 0.97 78.8 0 1 115.55 322.12
  Z"
/>
<path fill="#000000" fill-opacity="0.749" d="
  M 114.73 317.48
  A 0.41 0.41 0.0 0 1 115.30 317.60
  L 115.38 317.74
  A 1.65 1.46 57.8 0 1 115.03 319.91
  L 114.76 320.08
  A 1.65 1.46 57.8 0 1 112.64 319.47
  L 112.56 319.33
  A 0.41 0.41 0.0 0 1 112.68 318.77
  L 114.73 317.48
  Z"
/>
<path fill="#000000" fill-opacity="0.749" d="
  M 484.72 343.00
  Q 484.44 344.47 483.49 345.41
  Q 482.99 345.92 483.00 345.20
  L 483.15 333.40
  Q 483.15 332.91 482.80 332.56
  L 474.98 324.71
  A 1.99 1.98 -61.3 0 1 474.45 322.87
  L 475.50 318.23
  Q 475.76 317.08 476.60 317.91
  L 487.36 328.67
  Q 487.76 329.07 487.63 329.62
  Q 486.01 336.28 484.72 343.00
  Z"
/>
<path fill="#000000" fill-opacity="0.749" d="
  M 51.39 374.28
  C 50.87 373.25 50.27 371.96 49.17 371.48
  Q 48.72 371.28 48.72 370.79
  L 48.71 360.39
  Q 48.71 359.87 49.15 359.59
  L 59.26 353.10
  Q 60.35 352.40 59.55 353.42
  C 57.80 355.68 58.88 359.14 61.92 359.44
  C 65.75 359.81 66.06 357.09 66.00 354.16
  Q 65.99 353.57 66.42 353.15
  Q 71.42 348.24 76.45 343.14
  Q 79.96 339.59 85.03 336.45
  Q 96.80 329.15 109.00 321.12
  A 2.28 2.28 0.0 0 1 112.54 323.02
  L 112.56 333.51
  A 1.73 1.72 -24.5 0 1 112.13 334.65
  Q 109.67 337.48 106.47 339.42
  Q 105.93 339.74 105.31 339.69
  C 103.40 339.53 101.98 340.60 101.13 342.22
  Q 100.66 343.11 99.26 344.00
  Q 76.59 358.54 53.71 373.14
  Q 52.89 373.67 52.21 374.39
  Q 51.72 374.92 51.39 374.28
  Z"
/>
<path fill="#000000" fill-opacity="0.749" d="
  M 459.96 365.29
  L 459.96 348.50
  A 0.49 0.49 0.0 0 1 460.13 348.13
  L 470.69 338.94
  A 0.49 0.49 0.0 0 0 470.84 338.67
  L 473.38 327.23
  A 0.49 0.49 0.0 0 1 474.20 326.99
  L 480.87 333.68
  A 0.49 0.49 0.0 0 1 481.01 334.02
  L 480.96 347.68
  A 0.49 0.49 0.0 0 1 480.79 348.05
  L 460.77 365.65
  A 0.49 0.49 0.0 0 1 459.96 365.29
  Z"
/>
<path fill="#000000" fill-opacity="0.749" d="
  M 70.15 346.23
  L 70.23 346.35
  A 0.17 0.17 0.0 0 1 70.20 346.56
  L 64.29 352.09
  A 0.17 0.17 0.0 0 1 64.17 352.14
  L 61.69 352.02
  A 0.17 0.17 0.0 0 1 61.60 351.70
  L 69.91 346.18
  A 0.17 0.17 0.0 0 1 70.15 346.23
  Z"
/>
<path fill="#000000" fill-opacity="0.749" d="
  M 452.32 372.42
  L 452.27 355.25
  A 0.34 0.34 0.0 0 1 452.38 355.00
  L 457.18 350.66
  A 0.34 0.34 0.0 0 1 457.75 350.92
  L 457.72 368.08
  A 0.34 0.34 0.0 0 1 457.61 368.33
  L 452.89 372.67
  A 0.34 0.34 0.0 0 1 452.32 372.42
  Z"
/>
<circle fill="#000000" fill-opacity="0.749" cx="62.45" cy="355.75" r="1.59"/>
<path fill="#000000" fill-opacity="0.749" d="
  M 449.25 375.58
  Q 449.21 375.65 449.18 375.74
  Q 449.12 375.90 448.99 376.02
  Q 439.42 384.31 430.30 392.39
  A 0.92 0.91 48.9 0 1 428.99 392.30
  Q 426.95 389.90 424.30 387.50
  C 422.57 385.94 422.90 383.22 423.17 381.21
  Q 423.27 380.52 423.79 380.07
  L 426.89 377.41
  Q 427.41 376.96 427.47 377.64
  C 428.00 383.62 436.81 381.93 434.55 375.79
  Q 434.40 375.39 434.05 375.14
  L 431.93 373.63
  Q 431.50 373.33 431.89 372.98
  L 449.61 357.44
  A 0.36 0.36 0.0 0 1 450.21 357.71
  L 450.21 374.29
  Q 450.21 374.78 449.84 375.10
  Q 449.70 375.21 449.55 375.29
  Q 449.37 375.40 449.25 375.58
  Z"
/>
<path fill="#000000" fill-opacity="0.749" d="
  M 44.29 380.01
  L 53.47 379.86
  Q 54.27 379.85 53.71 380.42
  L 41.58 392.63
  A 1.64 1.64 0.0 0 1 40.42 393.11
  Q 27.87 393.05 16.07 393.11
  Q 14.48 393.12 13.01 392.27
  Q 9.47 390.22 5.92 388.45
  A 0.77 0.76 45.6 0 1 5.93 387.07
  Q 6.98 386.57 7.94 385.97
  Q 19.41 378.71 30.86 371.28
  Q 31.29 371.00 31.28 371.52
  L 31.24 373.44
  A 1.08 1.07 -10.7 0 1 30.58 374.40
  C 26.84 375.94 28.87 382.45 33.29 381.20
  C 36.35 380.33 37.27 375.80 34.17 374.47
  A 1.03 1.02 11.9 0 1 33.55 373.53
  L 33.52 370.17
  Q 33.52 369.57 34.03 369.25
  Q 40.14 365.48 46.35 361.32
  A 0.09 0.09 0.0 0 1 46.49 361.39
  Q 46.52 366.29 46.48 370.95
  Q 46.48 371.23 46.23 371.35
  Q 42.82 373.02 44.09 376.42
  Q 44.29 376.97 44.78 377.31
  Q 45.36 377.72 45.29 378.38
  Q 45.23 378.91 44.74 379.11
  Q 44.36 379.26 44.08 379.56
  Q 43.66 380.02 44.29 380.01
  Z"
/>
<circle fill="#000000" fill-opacity="0.749" cx="47.49" cy="374.88" r="1.65"/>
<ellipse fill="#000000" fill-opacity="0.749" cx="0.00" cy="0.00" transform="translate(431.27,377.59) rotate(84.7)" rx="1.74" ry="1.56"/>
<ellipse fill="#000000" fill-opacity="0.749" cx="0.00" cy="0.00" transform="translate(32.39,377.60) rotate(96.5)" rx="1.70" ry="1.56"/>
<path fill="#000000" fill-opacity="0.749" d="
  M 44.64 392.55
  L 57.24 380.01
  A 0.34 0.34 0.0 0 1 57.48 379.91
  L 69.26 379.89
  A 0.34 0.34 0.0 0 1 69.50 380.47
  L 56.87 393.16
  A 0.34 0.34 0.0 0 1 56.63 393.26
  L 44.88 393.13
  A 0.34 0.34 0.0 0 1 44.64 392.55
  Z"
/>
<path fill="#000000" fill-opacity="0.749" d="
  M 76.13 383.47
  L 66.40 393.13
  A 0.32 0.32 0.0 0 1 66.18 393.22
  L 60.46 393.32
  A 0.32 0.32 0.0 0 1 60.23 392.77
  L 73.04 380.02
  A 0.32 0.32 0.0 0 1 73.26 379.93
  L 162.16 379.91
  A 0.32 0.32 0.0 0 1 162.39 380.45
  L 159.65 383.27
  A 0.32 0.32 0.0 0 1 159.42 383.37
  L 76.35 383.38
  A 0.32 0.32 0.0 0 0 76.13 383.47
  Z"
/>
<path fill="#000000" fill-opacity="0.749" d="
  M 129.35 392.26
  C 129.05 390.98 127.27 389.39 125.90 389.41
  Q 122.41 389.46 121.80 392.99
  Q 121.69 393.65 121.03 393.64
  L 113.57 393.61
  A 1.44 1.42 67.3 0 1 112.56 393.19
  L 110.04 390.64
  Q 109.63 390.22 109.05 390.22
  L 79.94 390.21
  Q 79.33 390.21 78.84 390.56
  Q 77.53 391.47 76.50 392.62
  Q 75.92 393.27 75.05 393.27
  L 70.06 393.23
  Q 69.26 393.23 69.83 392.67
  L 76.45 386.10
  Q 76.91 385.64 77.57 385.64
  L 159.56 385.65
  A 1.89 1.87 22.1 0 0 160.90 385.09
  L 165.59 380.31
  Q 165.96 379.93 166.49 379.93
  L 190.38 379.91
  A 0.38 0.38 0.0 0 1 190.65 380.56
  L 177.65 393.58
  Q 177.31 393.92 176.82 393.93
  C 161.29 394.30 145.30 393.43 130.09 393.68
  A 0.73 0.73 0.0 0 1 129.36 392.81
  Q 129.41 392.53 129.35 392.26
  Z"
/>
<path fill="#000000" fill-opacity="0.749" d="
  M 220.19 380.46
  L 206.45 394.13
  A 0.32 0.32 0.0 0 1 206.22 394.22
  L 181.11 393.89
  A 0.32 0.32 0.0 0 1 180.89 393.34
  L 194.30 380.01
  A 0.32 0.32 0.0 0 1 194.52 379.92
  L 219.96 379.91
  A 0.32 0.32 0.0 0 1 220.19 380.46
  Z"
/>
<path fill="#000000" fill-opacity="0.749" d="
  M 251.12 389.16
  L 246.26 393.88
  Q 245.88 394.25 245.35 394.25
  L 210.21 394.25
  Q 209.36 394.25 209.96 393.65
  L 223.31 380.34
  Q 223.68 379.97 224.20 379.97
  Q 233.74 379.88 243.23 379.94
  A 0.04 0.04 0.0 0 1 243.26 380.00
  Q 241.40 382.34 239.37 384.38
  Q 239.19 384.55 238.96 384.50
  Q 233.78 383.36 233.33 388.20
  C 232.96 392.08 239.27 392.99 240.81 389.01
  C 241.18 388.08 240.90 387.44 240.75 386.54
  Q 240.65 385.95 241.10 385.55
  C 242.58 384.21 244.83 382.48 245.26 380.45
  Q 245.37 379.90 245.93 379.90
  L 251.09 379.91
  A 0.43 0.43 0.0 0 1 251.52 380.34
  L 251.54 388.17
  Q 251.54 388.75 251.12 389.16
  Z"
/>
<path fill="#000000" fill-opacity="0.749" d="
  M 253.99 388.46
  L 254.00 380.47
  Q 254.00 379.86 254.62 379.87
  L 257.81 379.95
  Q 258.49 379.97 258.47 380.65
  Q 258.37 384.94 258.49 389.74
  C 258.54 391.71 257.12 392.99 255.69 393.99
  A 1.36 1.35 27.4 0 1 254.86 394.25
  L 250.14 394.23
  Q 249.00 394.23 249.82 393.43
  L 253.35 389.98
  A 2.13 2.10 68.2 0 0 253.99 388.46
  Z"
/>
<path fill="#000000" fill-opacity="0.749" d="
  M 267.71 400.26
  L 267.34 380.32
  A 0.42 0.42 0.0 0 1 267.77 379.89
  L 271.65 379.97
  A 0.42 0.42 0.0 0 1 272.06 380.39
  L 272.09 396.73
  A 0.42 0.42 0.0 0 1 271.97 397.03
  L 268.43 400.55
  A 0.42 0.42 0.0 0 1 267.71 400.26
  Z"
/>
<path fill="#000000" fill-opacity="0.749" d="
  M 282.02 381.54
  Q 282.31 381.62 282.50 381.86
  Q 282.72 382.13 282.73 382.48
  Q 282.79 385.41 282.46 388.81
  Q 282.40 389.37 281.87 389.54
  Q 280.48 389.97 279.91 391.32
  Q 278.42 394.77 281.88 396.53
  Q 282.27 396.73 282.25 397.16
  L 280.98 438.80
  Q 280.97 439.37 280.40 439.44
  C 276.37 439.90 275.18 444.55 278.95 446.66
  Q 279.47 446.94 279.47 447.53
  L 279.48 462.49
  Q 279.48 463.54 278.83 462.72
  L 268.27 449.36
  A 6.64 6.63 48.8 0 1 268.86 440.48
  L 272.84 436.63
  A 1.28 1.28 0.0 0 1 273.79 436.28
  Q 278.16 436.52 278.28 432.35
  C 278.43 427.15 269.20 427.46 271.35 434.38
  Q 271.50 434.85 271.15 435.21
  L 268.18 438.28
  Q 267.25 439.24 267.25 437.91
  L 267.23 423.79
  A 1.98 1.95 -22.5 0 1 267.82 422.39
  L 274.64 415.65
  A 1.02 1.01 31.5 0 1 275.68 415.41
  Q 279.76 416.81 280.91 412.85
  C 282.25 408.25 275.58 406.53 273.81 410.41
  C 273.38 411.36 273.65 412.29 273.52 413.26
  A 1.50 1.45 -19.1 0 1 273.10 414.09
  L 268.42 418.75
  Q 267.13 420.03 267.19 418.22
  L 267.59 404.82
  A 1.09 1.04 70.3 0 1 267.91 404.10
  L 273.12 399.00
  A 3.26 3.22 68.1 0 0 274.09 396.68
  L 274.08 380.78
  Q 274.08 379.89 274.97 379.90
  L 280.86 379.93
  Q 281.34 379.94 281.49 380.39
  Q 281.54 380.54 281.51 380.71
  Q 281.37 381.37 282.02 381.54
  Z"
/>
<path fill="#000000" fill-opacity="0.749" d="
  M 259.09 393.65
  C 260.24 392.91 260.74 392.08 260.72 390.70
  Q 260.64 385.47 260.69 380.46
  Q 260.70 379.93 261.23 379.93
  L 264.70 379.91
  Q 265.25 379.91 265.25 380.45
  L 265.25 393.75
  Q 265.26 394.25 264.75 394.25
  L 259.26 394.23
  Q 258.19 394.23 259.09 393.65
  Z"
/>
<path fill="#000000" fill-opacity="0.749" d="
  M 427.93 394.54
  L 422.16 399.46
  A 0.32 0.32 0.0 0 1 421.72 399.44
  L 412.78 390.33
  A 0.32 0.32 0.0 0 1 412.80 389.87
  L 420.50 382.96
  A 0.32 0.32 0.0 0 1 421.04 383.20
  L 421.02 387.07
  A 0.32 0.32 0.0 0 0 421.12 387.29
  L 427.95 394.06
  A 0.32 0.32 0.0 0 1 427.93 394.54
  Z"
/>
<circle fill="#000000" fill-opacity="0.749" cx="237.04" cy="387.94" r="1.63"/>
<path fill="#000000" fill-opacity="0.749" d="
  M 124.43 393.65
  A 0.41 0.41 0.0 0 1 124.01 393.26
  L 124.00 393.08
  A 1.51 1.38 87.7 0 1 125.32 391.52
  L 125.64 391.50
  A 1.51 1.38 87.7 0 1 127.08 392.96
  L 127.08 393.14
  A 0.41 0.41 0.0 0 1 126.69 393.56
  L 124.43 393.65
  Z"
/>
<ellipse fill="#000000" fill-opacity="0.749" cx="0.00" cy="0.00" transform="translate(282.08,392.91) rotate(89.9)" rx="1.35" ry="0.39"/>
<path fill="#000000" fill-opacity="0.749" d="
  M 410.41 409.29
  L 401.48 400.30
  A 0.42 0.42 0.0 0 1 401.50 399.69
  L 410.45 391.72
  A 0.42 0.42 0.0 0 1 411.03 391.74
  L 420.03 400.81
  A 0.42 0.42 0.0 0 1 420.01 401.42
  L 410.99 409.31
  A 0.42 0.42 0.0 0 1 410.41 409.29
  Z"
/>
<rect fill="#000000" fill-opacity="0.749" x="-15.16" y="-0.43" transform="translate(94.49,392.92) rotate(0.4)" width="30.32" height="0.86" rx="0.26"/>
<path fill="#000000" fill-opacity="0.749" d="
  M 400.17 402.07
  L 408.78 410.69
  Q 409.07 410.98 408.76 411.26
  L 399.87 419.11
  A 0.51 0.50 47.1 0 1 399.17 419.08
  L 394.14 413.94
  Q 393.84 413.63 394.00 413.24
  Q 395.06 410.65 392.39 408.66
  Q 391.76 408.20 392.35 407.68
  L 398.78 402.03
  A 1.02 1.01 -43.1 0 1 400.17 402.07
  Z"
/>
<circle fill="#000000" fill-opacity="0.749" cx="277.33" cy="411.96" r="1.56"/>
<circle fill="#000000" fill-opacity="0.749" cx="390.50" cy="411.93" r="1.60"/>
<path fill="#000000" fill-opacity="0.749" d="
  M 389.30 428.04
  A 0.48 0.47 57.8 0 0 389.13 428.81
  Q 391.09 430.88 392.99 433.32
  C 393.49 433.95 393.40 434.70 393.78 435.24
  Q 402.31 447.64 427.01 482.87
  Q 427.62 483.73 426.56 483.74
  Q 421.86 483.77 421.78 483.77
  Q 420.73 483.78 420.02 483.05
  Q 413.75 476.66 407.58 470.60
  Q 407.16 470.19 407.26 469.61
  C 408.15 464.84 402.32 462.67 400.20 467.05
  A 0.60 0.60 0.0 0 1 399.17 467.14
  L 393.34 458.85
  A 0.94 0.94 0.0 0 1 393.45 457.63
  L 396.09 455.06
  Q 396.61 454.56 397.32 454.68
  C 400.55 455.23 403.11 452.07 401.40 449.10
  C 399.11 445.10 393.21 447.81 394.68 452.37
  A 1.51 1.50 62.6 0 1 394.16 454.02
  Q 393.03 454.88 392.13 456.04
  Q 391.72 456.55 391.35 456.02
  L 369.88 425.42
  Q 369.73 425.20 369.95 425.04
  L 373.41 422.66
  Q 373.63 422.50 373.83 422.70
  Q 380.41 429.51 386.33 435.17
  Q 387.40 436.19 386.88 437.51
  Q 386.68 438.01 386.78 438.54
  C 387.35 441.40 390.57 442.86 392.91 440.90
  C 395.90 438.40 393.12 433.05 389.53 434.40
  Q 388.76 434.69 388.17 434.11
  L 375.91 421.86
  A 0.74 0.74 0.0 0 1 376.05 420.70
  Q 381.52 417.35 386.06 413.28
  Q 386.63 412.76 387.02 413.43
  C 387.94 414.99 389.73 416.42 391.64 415.61
  Q 392.32 415.32 392.85 415.84
  L 397.43 420.33
  A 0.68 0.68 0.0 0 1 397.39 421.33
  Q 395.04 423.30 392.78 425.19
  C 391.59 426.18 390.83 427.46 389.30 428.04
  Z"
/>
<circle fill="#000000" fill-opacity="0.749" cx="274.67" cy="432.53" r="1.62"/>
<circle fill="#000000" fill-opacity="0.749" cx="390.50" cy="438.01" r="1.54"/>
<path fill="#000000" fill-opacity="0.749" d="
  M 281.68 444.05
  A 0.47 0.47 0.0 0 1 281.38 444.65
  L 281.22 444.70
  A 1.86 1.40 -18.3 0 1 279.01 443.95
  L 278.90 443.61
  A 1.86 1.40 -18.3 0 1 280.22 441.70
  L 280.38 441.64
  A 0.47 0.47 0.0 0 1 280.98 441.94
  L 281.68 444.05
  Z"
/>
<path fill="#000000" fill-opacity="0.749" d="
  M 309.35 501.46
  L 281.91 466.67
  A 1.51 1.51 0.0 0 1 281.59 465.74
  L 281.63 447.47
  Q 281.63 446.72 282.35 446.52
  Q 282.70 446.42 282.97 446.17
  Q 283.40 445.78 283.76 446.23
  L 309.76 479.26
  Q 310.08 479.67 310.08 480.19
  L 310.09 501.20
  Q 310.09 502.39 309.35 501.46
  Z"
/>
<circle fill="#000000" fill-opacity="0.749" cx="398.15" cy="451.00" r="1.60"/>
<circle fill="#000000" fill-opacity="0.749" cx="403.63" cy="468.47" r="1.66"/>
<path fill="#000000" fill-opacity="0.749" d="
  M 429.13 486.06
  L 432.96 491.23
  A 0.11 0.11 0.0 0 1 432.82 491.40
  Q 428.51 489.26 426.75 492.47
  Q 425.27 495.18 427.75 497.29
  C 428.88 498.26 430.36 497.91 431.71 497.78
  A 0.90 0.88 -21.7 0 1 432.50 498.11
  Q 433.77 499.68 435.17 500.94
  Q 436.15 501.82 435.79 503.14
  A 2.28 2.27 -57.9 0 0 436.26 505.21
  Q 438.97 508.35 441.93 506.08
  Q 442.78 505.43 443.39 506.30
  L 446.80 511.17
  A 2.37 2.35 -62.8 0 1 447.23 512.53
  L 447.21 532.40
  A 0.87 0.87 0.0 0 0 448.15 533.27
  Q 448.32 533.25 448.48 533.25
  A 0.79 0.79 0.0 0 0 449.25 532.46
  L 449.23 516.74
  Q 449.23 514.39 450.50 516.36
  Q 452.45 519.37 455.02 522.90
  C 456.49 524.91 455.84 526.63 456.00 528.89
  C 456.07 529.89 455.78 530.46 454.84 530.94
  Q 451.30 532.75 447.88 534.64
  A 1.24 1.23 57.9 0 1 446.27 534.27
  Q 438.83 523.52 431.64 513.36
  C 430.18 511.30 432.06 509.88 429.79 507.52
  C 426.41 504.03 422.89 501.05 420.05 496.95
  Q 412.05 485.38 403.25 472.96
  Q 402.88 472.45 403.49 472.29
  L 405.10 471.87
  Q 405.70 471.72 406.13 472.15
  L 419.39 485.44
  A 1.44 1.42 67.3 0 0 420.40 485.86
  L 428.76 485.87
  A 0.47 0.45 71.3 0 1 429.13 486.06
  Z"
/>
<path fill="#000000" fill-opacity="0.749" d="
  M 326.85 511.27
  L 322.19 515.93
  Q 321.37 516.75 320.65 515.84
  L 313.10 506.23
  Q 312.15 505.03 312.13 503.50
  Q 312.01 493.81 312.19 483.25
  Q 312.19 482.98 312.41 482.79
  Q 312.83 482.43 312.99 482.96
  Q 313.21 483.69 313.68 484.28
  Q 320.56 492.94 326.90 501.07
  Q 327.23 501.49 327.23 502.02
  L 327.22 510.36
  Q 327.22 510.89 326.85 511.27
  Z"
/>
<path fill="#000000" fill-opacity="0.749" d="
  M 433.46 495.95
  L 433.62 492.44
  Q 433.63 492.30 433.71 492.41
  L 438.33 499.06
  A 0.41 0.40 67.6 0 1 438.07 499.69
  L 437.70 499.76
  A 1.09 1.09 0.0 0 1 436.73 499.47
  L 433.66 496.47
  A 0.69 0.66 25.3 0 1 433.46 495.95
  Z"
/>
<circle fill="#000000" fill-opacity="0.749" cx="429.99" cy="494.31" r="1.60"/>
<path fill="#000000" fill-opacity="0.749" d="
  M 440.07 504.67
  Q 439.12 504.96 438.44 504.32
  A 1.55 1.54 -30.5 0 1 439.12 501.70
  Q 440.35 501.39 440.94 502.89
  Q 441.47 504.24 440.07 504.67
  Z"
/>
<path fill="#000000" fill-opacity="0.749" d="
  M 329.31 511.23
  L 329.42 504.99
  Q 329.44 504.24 329.90 504.84
  L 336.27 513.01
  Q 336.61 513.45 336.24 513.86
  Q 333.77 516.54 331.03 519.04
  C 328.91 520.98 329.58 523.54 329.54 526.11
  Q 329.52 527.10 328.91 526.32
  L 323.09 518.79
  Q 322.79 518.40 323.14 518.06
  L 328.80 512.44
  Q 329.30 511.94 329.31 511.23
  Z"
/>
<path fill="#000000" fill-opacity="0.749" d="
  M 338.27 515.50
  L 352.16 533.15
  A 0.34 0.34 0.0 0 1 352.10 533.63
  L 341.66 541.86
  A 0.34 0.34 0.0 0 1 341.18 541.80
  L 331.74 529.92
  A 0.34 0.34 0.0 0 1 331.67 529.71
  L 331.66 521.68
  A 0.34 0.34 0.0 0 1 331.76 521.44
  L 337.76 515.47
  A 0.34 0.34 0.0 0 1 338.27 515.50
  Z"
/>
<path fill="#000000" fill-opacity="0.749" d="
  M 145.18 552.17
  Q 149.69 549.76 155.78 549.76
  Q 181.93 549.74 206.48 549.76
  Q 206.74 549.76 206.74 550.02
  L 206.79 563.00
  A 0.48 0.47 -90.0 0 1 206.32 563.48
  Q 181.62 563.58 156.45 563.45
  C 149.14 563.41 146.38 567.81 146.39 574.51
  Q 146.41 598.99 146.41 623.13
  A 0.87 0.87 0.0 0 1 145.54 624.00
  L 133.28 623.99
  A 0.45 0.45 0.0 0 1 132.83 623.54
  Q 132.82 598.58 132.82 573.24
  Q 132.82 558.77 145.18 552.17
  Z"
/>
<path fill="#000000" fill-opacity="0.749" d="
  M 318.87 570.06
  Q 319.07 570.49 319.07 571.00
  Q 319.04 596.62 319.09 622.98
  A 0.99 0.99 0.0 0 1 318.10 623.98
  L 305.83 624.00
  A 0.60 0.60 0.0 0 1 305.23 623.39
  Q 305.58 600.73 305.18 572.31
  C 305.12 567.56 301.38 563.50 296.54 563.50
  Q 271.17 563.50 245.50 563.50
  Q 244.76 563.50 244.76 562.76
  L 244.75 550.27
  Q 244.75 549.76 245.26 549.76
  Q 272.91 549.72 297.78 549.79
  Q 300.19 549.80 303.85 550.96
  C 312.25 553.63 317.52 560.28 318.61 569.09
  Q 318.67 569.60 318.87 570.06
  Z"
/>
<path fill="#000000" fill-opacity="0.749" d="
  M 410.83 603.32
  C 415.43 608.80 417.21 614.87 417.05 622.32
  Q 416.91 629.11 417.03 636.93
  A 0.57 0.57 0.0 0 1 416.46 637.51
  L 403.54 637.52
  A 0.36 0.36 0.0 0 1 403.18 637.15
  Q 403.40 627.29 403.12 619.58
  C 402.93 614.50 399.52 609.35 394.03 609.38
  Q 373.40 609.48 352.31 609.33
  Q 351.75 609.32 351.75 608.76
  L 351.75 596.28
  Q 351.75 595.78 352.25 595.78
  Q 369.26 595.71 393.66 595.80
  C 397.63 595.82 400.76 593.16 402.27 589.62
  Q 403.25 587.32 403.28 583.41
  Q 403.31 577.27 403.22 572.28
  Q 403.12 567.40 399.31 564.84
  Q 397.19 563.42 393.22 563.44
  Q 368.19 563.57 343.46 563.48
  A 0.46 0.45 0.0 0 1 343.00 563.03
  L 343.00 550.45
  Q 343.00 549.71 343.75 549.71
  Q 365.12 549.87 388.88 549.67
  Q 397.83 549.60 401.80 550.96
  Q 409.29 553.52 413.54 560.21
  C 416.20 564.39 417.21 568.89 417.03 573.84
  C 416.82 580.03 417.76 586.97 415.93 592.57
  Q 414.23 597.77 410.83 601.75
  Q 410.16 602.53 410.83 603.32
  Z"
/>
<path fill="#000000" fill-opacity="0.749" d="
  M 445.32 603.70
  Q 442.60 592.71 439.20 580.56
  Q 437.03 572.77 433.15 567.17
  Q 431.17 564.31 427.88 563.47
  Q 427.34 563.33 427.33 562.76
  L 427.30 550.26
  Q 427.30 549.71 427.85 549.74
  C 436.99 550.31 443.00 555.89 446.99 563.81
  Q 450.67 571.11 452.71 578.54
  Q 456.65 592.84 460.51 607.80
  Q 461.64 612.20 464.63 618.54
  C 465.51 620.43 466.49 621.31 467.64 622.84
  C 469.68 625.54 473.32 624.97 475.29 622.53
  Q 478.39 618.67 480.20 613.43
  Q 483.57 603.73 485.81 593.55
  Q 488.44 581.61 492.52 570.45
  Q 494.91 563.88 498.80 558.55
  Q 504.90 550.21 514.93 549.72
  A 0.55 0.54 88.5 0 1 515.50 550.27
  L 515.50 562.80
  Q 515.50 563.35 514.96 563.45
  C 509.56 564.44 506.54 571.30 504.88 576.06
  Q 502.41 583.09 500.85 589.68
  Q 498.71 598.75 496.28 607.42
  Q 493.71 616.58 490.15 624.17
  C 487.40 630.02 482.15 636.05 475.55 637.30
  C 461.46 639.96 454.01 629.72 449.74 618.05
  Q 447.06 610.73 445.32 603.70
  Z"
/>
<path fill="#000000" fill-opacity="0.749" d="
  M 599.49 624.76
  L 599.52 636.82
  Q 599.52 637.55 598.80 637.54
  Q 574.69 637.41 548.69 637.58
  Q 543.12 637.62 539.58 636.30
  Q 530.07 632.78 526.80 623.36
  Q 525.27 618.98 525.43 611.91
  Q 525.98 588.05 525.48 564.47
  Q 525.46 563.79 526.14 563.78
  L 537.67 563.65
  A 1.77 1.76 -87.5 0 0 539.41 562.05
  Q 539.94 556.38 539.38 550.40
  Q 539.32 549.73 540.00 549.73
  Q 565.04 549.82 589.40 549.71
  C 599.62 549.66 608.35 554.09 611.95 564.13
  Q 613.40 568.16 613.36 574.01
  Q 613.20 600.58 613.34 623.33
  A 0.65 0.64 89.6 0 1 612.70 623.99
  L 600.24 624.00
  Q 599.49 624.00 599.49 624.76
  Z
  M 540.17 563.64
  A 1.19 1.19 0.0 0 0 539.09 564.51
  Q 538.66 566.07 538.69 567.67
  Q 539.08 592.54 538.97 614.45
  C 538.94 619.33 542.46 623.99 547.64 623.99
  Q 575.45 624.02 598.95 624.00
  Q 599.53 624.00 599.53 623.42
  Q 599.76 599.66 599.43 571.24
  C 599.39 567.15 595.18 563.45 591.15 563.46
  Q 569.59 563.53 550.76 563.39
  Q 545.36 563.35 540.17 563.64
  Z"
/>
<path fill="#000000" fill-opacity="0.749" d="
  M 692.55 550.06
  C 705.07 552.56 710.98 563.06 711.47 575.30
  Q 711.50 576.00 710.79 576.00
  L 698.49 576.01
  A 0.71 0.70 -90.0 0 1 697.79 575.30
  C 697.82 571.28 695.51 566.56 691.95 564.55
  Q 690.07 563.49 686.83 563.49
  Q 661.29 563.50 638.23 563.51
  Q 637.50 563.51 637.51 562.78
  L 637.55 550.26
  Q 637.55 549.76 638.05 549.76
  Q 664.11 549.74 689.76 549.78
  Q 691.15 549.78 692.55 550.06
  Z"
/>
<rect fill="#000000" fill-opacity="0.749" x="-6.87" y="-6.84" transform="translate(213.88,570.58) rotate(0.1)" width="13.74" height="13.68" rx="0.50"/>
<path fill="#000000" fill-opacity="0.749" d="
  M 253.01 637.55
  C 239.81 637.59 230.93 627.93 230.91 614.66
  Q 230.87 589.97 230.88 564.35
  Q 230.88 563.74 231.49 563.74
  L 243.98 563.75
  Q 244.65 563.75 244.65 564.42
  Q 244.60 588.02 244.60 614.66
  Q 244.60 619.98 248.91 622.67
  Q 251.10 624.05 254.52 624.04
  Q 280.54 623.97 304.42 623.97
  Q 305.00 623.97 305.00 624.55
  L 304.99 637.01
  A 0.51 0.51 0.0 0 1 304.48 637.52
  Q 279.20 637.47 253.01 637.55
  Z"
/>
<rect fill="#000000" fill-opacity="0.749" x="329.39" y="563.75" width="13.60" height="73.76" rx="0.30"/>
<path fill="#000000" fill-opacity="0.749" d="
  M 697.87 623.37
  Q 697.99 617.03 697.94 610.52
  Q 697.89 604.56 693.64 601.88
  Q 691.59 600.58 689.61 600.56
  Q 667.91 600.40 647.59 600.56
  Q 641.79 600.60 637.88 599.15
  Q 627.84 595.44 624.78 585.39
  C 622.85 579.05 623.73 571.26 623.58 564.37
  Q 623.57 563.74 624.20 563.74
  L 636.79 563.74
  Q 637.18 563.74 637.20 564.14
  Q 637.39 569.30 637.18 575.65
  Q 637.06 579.47 638.08 581.76
  C 639.37 584.67 642.64 586.79 645.94 586.78
  Q 669.01 586.74 688.94 586.78
  Q 690.90 586.78 692.96 587.22
  C 695.04 587.66 696.92 587.86 698.90 588.83
  Q 710.99 594.78 711.48 608.81
  Q 711.72 615.99 711.59 623.33
  Q 711.58 623.96 710.95 623.97
  L 698.25 624.01
  Q 697.75 624.01 697.75 624.51
  L 697.75 637.19
  A 0.35 0.35 0.0 0 1 697.40 637.54
  Q 670.55 637.44 644.11 637.52
  C 640.53 637.53 636.32 635.72 633.43 633.49
  Q 626.29 627.97 624.45 618.55
  Q 623.86 615.57 623.55 612.20
  Q 623.48 611.49 624.20 611.49
  L 636.73 611.50
  Q 637.24 611.50 637.26 612.01
  C 637.52 618.19 641.15 624.06 647.76 624.05
  Q 674.88 623.99 697.22 624.01
  Q 697.86 624.01 697.87 623.37
  Z"
/>
<path fill="#000000" fill-opacity="0.749" d="
  M 206.99 623.57
  L 207.04 615.68
  A 0.43 0.43 0.0 0 1 207.47 615.25
  L 220.32 615.25
  A 0.43 0.43 0.0 0 1 220.75 615.68
  L 220.75 637.07
  A 0.43 0.43 0.0 0 1 220.32 637.50
  L 147.17 637.50
  A 0.43 0.43 0.0 0 1 146.74 637.07
  L 146.76 624.44
  A 0.43 0.43 0.0 0 1 147.19 624.01
  L 206.56 624.00
  A 0.43 0.43 0.0 0 0 206.99 623.57
  Z"
/>
<path fill="#000000" fill-opacity="0.749" d="
  M 572.77 656.56
  A 0.93 0.93 0.0 0 0 571.82 657.49
  C 571.79 663.08 572.23 668.75 571.67 674.29
  Q 571.62 674.80 571.22 675.14
  Q 570.80 675.50 570.24 675.34
  Q 569.52 675.13 569.49 674.38
  Q 569.19 666.12 569.35 657.40
  A 0.60 0.60 0.0 0 0 568.75 656.79
  L 563.82 656.75
  Q 562.86 656.74 562.72 655.79
  Q 562.68 655.56 562.76 655.36
  A 1.93 1.83 -79.0 0 1 564.55 654.08
  L 577.16 654.34
  Q 578.45 654.37 578.31 655.65
  L 578.28 655.91
  A 0.83 0.82 3.9 0 1 577.45 656.63
  L 572.77 656.56
  Z"
/>
<path fill="#000000" d="
  M 651.37 672.17
  Q 652.37 673.22 653.95 673.20
  A 0.80 0.80 0.0 0 1 654.76 674.02
  L 654.75 674.44
  Q 654.74 675.04 654.14 675.01
  Q 648.63 674.73 648.75 669.57
  Q 648.92 662.11 648.80 655.37
  Q 648.79 654.34 649.79 654.57
  Q 650.18 654.65 650.46 655.03
  Q 650.98 655.72 650.98 656.57
  L 650.98 671.21
  Q 650.99 671.77 651.37 672.17
  Z"
/>
<circle fill="#000000" cx="693.02" cy="656.31" r="1.32"/>
<path fill="#000000" d="
  M 583.21 668.65
  A 0.75 0.74 -13.0 0 0 582.53 669.73
  Q 585.17 675.00 591.32 672.41
  A 0.51 0.51 0.0 0 1 592.01 672.73
  L 592.10 673.03
  A 1.13 1.13 0.0 0 1 591.48 674.40
  C 586.95 676.48 580.88 674.21 580.28 668.81
  C 579.69 663.56 583.60 659.87 588.76 660.45
  Q 592.77 660.90 594.39 664.59
  L 594.77 665.44
  Q 596.25 668.83 592.55 668.78
  L 583.21 668.65
  Z
  M 582.75 667.14
  L 592.99 667.26
  A 0.16 0.16 0.0 0 0 593.15 667.10
  L 593.15 667.03
  A 5.10 4.79 0.7 0 0 588.11 662.18
  L 587.75 662.18
  A 5.10 4.79 0.7 0 0 582.59 666.91
  L 582.59 666.98
  A 0.16 0.16 0.0 0 0 582.75 667.14
  Z"
/>
<path fill="#000000" d="
  M 620.22 662.31
  C 613.36 662.44 615.25 670.38 614.95 674.53
  Q 614.89 675.31 614.11 675.23
  L 613.75 675.19
  A 0.56 0.55 2.3 0 1 613.25 674.65
  Q 613.18 671.75 613.13 668.57
  C 613.06 663.50 616.02 659.60 621.40 660.53
  C 628.04 661.68 627.43 668.56 627.07 674.45
  A 0.74 0.73 87.6 0 1 626.45 675.13
  Q 625.58 675.27 625.10 673.81
  A 1.22 1.06 40.9 0 1 625.04 673.39
  C 625.11 669.68 626.31 662.19 620.22 662.31
  Z"
/>
<path fill="#000000" d="
  M 645.18 667.77
  A 7.42 7.42 0.0 0 1 637.76 675.19
  A 7.42 7.42 0.0 0 1 630.34 667.77
  A 7.42 7.42 0.0 0 1 637.76 660.35
  A 7.42 7.42 0.0 0 1 645.18 667.77
  Z
  M 643.20 667.77
  A 5.49 5.49 0.0 0 0 637.71 662.28
  A 5.49 5.49 0.0 0 0 632.22 667.77
  A 5.49 5.49 0.0 0 0 637.71 673.26
  A 5.49 5.49 0.0 0 0 643.20 667.77
  Z"
/>
<rect fill="#000000" x="-1.01" y="-7.51" transform="translate(693.05,667.73) rotate(-0.2)" width="2.02" height="15.02" rx="0.95"/>
<path fill="#000000" d="
  M 609.21 671.50
  Q 609.79 671.12 610.14 671.72
  L 610.32 672.03
  A 0.95 0.95 0.0 0 1 610.06 673.28
  Q 604.66 677.23 599.71 673.07
  C 596.98 670.76 596.88 666.00 599.05 663.25
  Q 601.95 659.58 607.10 660.66
  C 608.28 660.90 610.37 661.92 610.34 663.35
  Q 610.33 663.72 610.13 664.03
  Q 609.77 664.57 609.28 664.14
  C 606.43 661.60 602.00 661.55 600.18 665.24
  Q 598.75 668.15 600.24 670.48
  Q 603.36 675.34 609.21 671.50
  Z"
/>
<path fill="#000000" d="
  M 671.53 667.77
  A 7.44 7.44 0.0 0 1 664.09 675.21
  A 7.44 7.44 0.0 0 1 656.65 667.77
  A 7.44 7.44 0.0 0 1 664.09 660.33
  A 7.44 7.44 0.0 0 1 671.53 667.77
  Z
  M 669.57 667.76
  A 5.50 5.50 0.0 0 0 664.07 662.26
  A 5.50 5.50 0.0 0 0 658.57 667.76
  A 5.50 5.50 0.0 0 0 664.07 673.26
  A 5.50 5.50 0.0 0 0 669.57 667.76
  Z"
/>
<path fill="#000000" d="
  M 686.52 673.99
  A 0.54 0.54 0.0 0 0 685.73 673.70
  Q 680.60 676.84 676.26 673.28
  C 673.67 671.15 673.15 666.66 674.89 663.93
  C 679.74 656.32 691.49 661.67 687.86 671.18
  Q 687.64 671.77 687.83 672.37
  C 689.13 676.50 688.78 680.84 683.54 680.99
  C 681.91 681.04 680.13 680.75 678.64 681.52
  Q 678.01 681.85 677.30 682.01
  Q 676.61 682.16 676.59 681.46
  C 676.55 680.16 677.67 679.42 678.83 679.45
  Q 681.79 679.53 684.62 679.05
  Q 685.15 678.96 685.53 678.58
  Q 687.42 676.67 686.52 673.99
  Z
  M 686.79 667.76
  A 5.50 5.50 0.0 0 0 681.29 662.26
  A 5.50 5.50 0.0 0 0 675.79 667.76
  A 5.50 5.50 0.0 0 0 681.29 673.26
  A 5.50 5.50 0.0 0 0 686.79 667.76
  Z"
/>
<path fill="#000000" d="
  M 709.52 673.37
  Q 704.97 676.58 700.54 673.93
  C 695.89 671.15 696.49 663.37 701.32 661.16
  C 706.71 658.68 712.39 662.40 711.94 668.43
  Q 711.69 671.78 711.96 674.71
  A 0.55 0.55 0.0 0 1 711.20 675.27
  Q 710.01 674.77 710.01 673.63
  Q 710.01 673.03 709.52 673.37
  Z
  M 710.13 667.76
  A 5.47 5.47 0.0 0 0 704.66 662.29
  A 5.47 5.47 0.0 0 0 699.19 667.76
  A 5.47 5.47 0.0 0 0 704.66 673.23
  A 5.47 5.47 0.0 0 0 710.13 667.76
  Z"
/>
</svg>
