<svg xmlns="http://www.w3.org/2000/svg" viewBox="0 0 737 737"><path fill-opacity=".749" d="M519.67 53.03q1.7 2.42 4.37 1.58a1.25 1.25 0 0 1 1.33.38l1.35 1.56q.44.52-.23.52l-16.49.01q-.55 0-.95-.39l-5.86-5.75q-.37-.37-.3-.89c.17-1.16.43-2.61-.25-3.64-2.96-4.49-9.07-.26-6.65 3.64q1.54 2.47 4.24 1.87.73-.16 1.26.36l4.26 4.21q.62.61-.25.61l-29.77-.07a.84.82 12 0 0-.76.48L464.2 80.7a.62.62 0 0 1-1 .17l-9.51-9.5a1.46 1.45 35.5 0 1-.28-1.65q4.56-9.5 8.79-18.85.78-1.71 1.99-2.73 2.43-2.05 4.49-4.29a1.82 1.81-68.3 0 1 1.36-.59l9.92.05q.7.01.2.51l-15.95 15.95q-.49.5-1.18.35c-3.62-.79-6.13 3.11-3.9 6.04 1.98 2.59 5.56 1.72 6.48-1.35.32-1.08-.14-1.79-.14-2.8q0-.41.29-.69l17.33-17.34a2.43 2.41-67.4 0 1 1.71-.71l47.68.01a1.99 1.95 67.1 0 1 1.39.58l21.92 21.91q.72.72 1.74.72l13.37-.01q.5 0 .82.38l9.44 10.96q.15.18-.03.34l-.19.17q-.18.16-.31-.04-1.6-2.62-4.07-2.58c-4.23.07-5.03 6.12-1.07 7.11q2.86.71 4.42-1.39a2.69 2.69 0 0 1 4.19-.15l20.85 24.27q1.44 1.68-.76 1.42-2.02-.23-4.1-.04-.53.05-.91-.33l-8.02-7.92a2.16 2.12 67.1 0 0-1.51-.63l-8.88-.05a2.03 2.03 0 0 1-1.52-.71L545.39 57.5q-.38-.44-.96-.44l-13.55.03a1.04 1.03-22.8 0 1-.72-.29l-3.55-3.42a1.03 1.03 0 0 1-.2-1.21q.47-.93.15-1.95c-1.9-6.13-10.08-1.75-6.89 2.81"/><path fill-opacity=".749" d="m560.17 59.7 5.56.06q.1 0 .16.08l3.3 4.13a.15.14-18.4 0 1-.12.23q-5.61.07-11.22.04-.56 0-.95-.4L537 43.96q-.67-.67.29-.68l8.99-.02q1.26-.01 1.13 1.25c-.18 1.78-.4 2.95 1.07 4.37q4.89 4.75 10.02 10.1.69.71 1.67.72"/><path fill-opacity=".749" d="M550.7 48.03q-.86-.86-1.18-2.04-.38-1.4.35-2.31a1.27 1.27 0 0 1 1.96-.03l11.48 13.32q.35.42-.2.42l-2.56.01q-.56 0-.96-.4z"/><rect width="3.04" height="3.08" x="-1.52" y="-1.54" fill-opacity=".749" rx="1.07" transform="rotate(40.9 184.902 693.613)"/><circle cx="522.76" cy="51.02" r="1.59" fill-opacity=".749"/><circle cx="462.02" cy="63.79" r="1.58" fill-opacity=".749"/><path fill-opacity=".749" d="m452.02 83.98-4.72-.16a.3.3 0 0 1-.26-.42l4.74-10.26a.3.3 0 0 1 .48-.09l10.39 10.38a.3.3 0 0 1 .06.34l-3.22 6.97a.3.3 0 0 1-.48.09l-6.79-6.77a.3.3 0 0 0-.2-.08"/><circle cx="576.69" cy="79.32" r="1.62" fill-opacity=".749"/><path fill-opacity=".749" d="m450.83 108.07-8.32-8.39a.34.34 0 0 0-.22-.1l-2.25-.09a.34.34 0 0 1-.29-.48l5.92-12.7a.34.34 0 0 1 .3-.19l4.99-.07a.34.34 0 0 1 .24.1l6.93 6.85a.34.34 0 0 1 .07.39l-6.82 14.59a.34.34 0 0 1-.55.09M582.51 101.21q-.89-.47.71-.81.59-.13 1.2-.13l4.64.04a1.94 1.94 0 0 1 1.36.58l7.24 7.32a2.68 2.65-22.1 0 0 1.9.79h7.79q.49 0 .81.37l8.01 9.26a.31.31 0 0 1-.23.52l-17.65.05a1.01 1 69.3 0 1-.79-.36q-7.04-8.49-14.77-17.45-.1-.11-.22-.18M438.82 106.16l-1.76.03q-.73.01-.42-.65l1.27-2.64a2.54 2.54 0 0 1 4.08-.69l8.14 8.13q.17.16.07.37l-1.91 3.9a.21.2-54.5 0 1-.33.06l-8.24-8.14q-.37-.38-.9-.37M437.7 113.93q-1.31-1.38-3.57-1.1-1.17.15-.53-.84.64-.97.98-2.06a2.63 2.62 31 0 1 4.35-1.08l8.13 8.05q.17.17.06.38l-1.92 3.89q-.12.23-.31.05-3.72-3.64-7.19-7.29M433.62 119.92c-2.72-.19-5.56-.14-8.32.07q-3.25.25-.46-1.44l5.49-3.32q.38-.23.82-.23l3.88.02q.57 0 .97.4l8.23 8.17a.41.41 0 0 1-.36.69q-1.99-.38-3.45.82a.89.88-41.9 0 1-1.18-.06l-4.81-4.75q-.34-.33-.81-.37M628.23 159.58l-115.79-.17a.86.86 0 0 1-.86-.91l.08-1.76q.04-.69.73-.7c38.9-.36 77.81-.38 115.58-.26q.87 0 1.02-.86l.19-1.2q.14-.85-.71-.89l-1.45-.06q-.62-.03-1.03-.5l-2.83-3.35a.39.39 0 0 1 .3-.65l4.72.04q.82.01.98-.79l.08-.42q.2-1.07-.89-1.07l-6.91-.01q-.75 0-1.24-.57l-2.88-3.39q-.49-.57.26-.57h10.49q1.06 0 1.13-1.06l.03-.34a.7.7 0 0 0-.7-.75l-13.01.01q-.48 0-.78-.36l-14.38-16.86q-.73-.85.39-.85l16.96.03a1.71 1.7-19.8 0 1 1.31.61c12.41 14.81 25.84 29.87 38.28 45.28a1.73 1.72 70.5 0 1-1.34 2.81h-34.13q-.56 0-.76-.53-1.38-3.7-5.39-2.48-.69.21-1.05.83l-.86 1.51q-.38.66-1.13.66h-59.78q-.54 0-.92-.4l-2.09-2.22a2.91 2.86-21.2 0 0-2.11-.91l-36.7-.1q-.4 0-.23-.36.81-1.71.89-3.63.02-.52.54-.52l116.12-.07a.85.85 0 0 0 .85-.91l-.02-.4a.96.96 0 0 0-.96-.9"/><path fill-opacity=".749" d="M431.23 126.82a1.41 1.39-23.3 0 0-.95-.37l-17.05.08q-.96.01-.12-.46c2.55-1.44 5.41-4.16 8.37-4.11q5.63.08 10.46.04a2.8 2.78-18.8 0 1 2.27 1.11q1.38 1.82 3.14 2.99a.63.62 45.2 0 1 0 1.05l-2.67 1.71q-.74.47-1.38-.13z"/><path fill-opacity=".749" d="M430.86 129.56q.6.17.68.67.08.45-.31.71l-3.4 2.22a.72.67 26.9 0 1-.38.11l-24.6.1q-.95 0-.15-.52l5.81-3.78q.48-.31 1.05-.31 9.96-.03 19.81 0 .37 0 .69.19.18.1.3.27.19.26.5.34M416.93 140.03l-24.43.04a.36.36 0 0 1-.19-.67l6.14-3.87a.36.36 0 0 1 .19-.06l24.72.02a.36.36 0 0 1 .19.67l-6.44 3.82a.36.36 0 0 1-.18.05M394.8 146.49c-1.3.18-2.03 1.42-2.87 2.33q-.37.4-.93.4l-12.8-.03q-.96 0-.16-.52l9.23-5.97a2.07 2.02-60.9 0 1 1.11-.33l24.07-.07q1.47 0 .23.79l-12.67 8.13a.35.35 0 0 1-.54-.27q-.37-5.04-4.67-4.46"/><path fill-opacity=".749" d="M393.96 150.64a.55.55 0 0 1-.06-.78l.7-.81a1.34 1.29-49.4 0 1 1.85-.18l.37.31a1.34 1.29-49.4 0 1 .1 1.86l-.69.81a.55.55 0 0 1-.78.06zM394.71 154.6l-31.4 20.1a.81.81 0 0 1-1.01-.11l-9.06-9a.73.73 0 0 1 .12-1.13l20.01-12.86q.55-.35 1.2-.35h16.69q.61 0 .91.53.83 1.43 2.49 2.16a.38.37-49.5 0 1 .05.66M347.34 177.6c-.82.44-1.13 1.23-1.78 1.79q-.42.36-.98.36l-12.61.08q-3.72.02-.37-1.6 1.69-.81 3.32-1.89 7.16-4.73 15.13-9.72.76-.48 1.4.16 4.35 4.41 8.76 8.83.25.26.31.61.03.2-.14.32-.78.51-7.25 4.82a.11.1 73.3 0 1-.16-.09c-.08-2.93-2.89-5.18-5.63-3.67M525.09 169.7q-1.27-.02-1.04 1.24.13.68.05 1.31-.11.9-1.14.9-7.24.03-13.28 0-.47 0-.38-.46l.75-3.64a.68.68 0 0 1 .67-.55l37.63.15a.6.6 0 0 1 .59.51l.04.26q.05.33-.29.34-11.58.13-23.6-.06"/><ellipse fill-opacity=".749" rx="1.47" ry=".5" transform="rotate(-1 10007.448 -35284.866)"/><path fill-opacity=".749" d="m520.29 186.56-13.55-.01a.6.6 0 0 1-.58-.73l2.33-10.1a.6.6 0 0 1 .59-.46l13.42-.01a.6.6 0 0 1 .59.73l-2.22 10.11a.6.6 0 0 1-.58.47"/><rect width="2.82" height="3.16" x="-1.41" y="-1.58" fill-opacity=".749" rx="1.24" transform="rotate(3.1 -3169.793 6540.795)"/><path fill-opacity=".749" d="m345.08 182.11 2.32 2.37a.32.32 0 0 1-.06.49l-9.35 5.94a.3.3 0 0 1-.17.05l-24.74.02a.32.32 0 0 1-.17-.59l13-8.34a.3.3 0 0 1 .17-.05l18.78.01a.32.32 0 0 1 .22.1M514.49 200.29l2.56 2.67q.1.11.04.24-.06.14-.16.23-.13.13-.17.31-3.94 17.08-7.86 34.02a.37.37 0 0 1-.62.17l-9.14-9.13q-.43-.42-.43-1.03-.04-3.01-.07-6.4-.03-3.14.76-6.45 3.33-13.96 5.87-25.42.14-.64.79-.64l13.64-.01a.47.47 0 0 1 .46.59l-2.63 10.32q-.3 1.18-.76-.05-.17-.46-.65-.72-.73-.38-1.37.14l-.2.16q-.57.47-.06 1M302.06 197.44c2.09-1.4 5.66-4.41 8.15-4.43q12.27-.1 23.11.11.98.01.37.78-.28.34-.68.38-.47.05-.86.31l-5.64 3.83a3.17 3.15 27.4 0 1-1.75.55q-11.06.04-21.62-.04-1.37-.01-2.64-.44-.76-.25.01-.49c.56-.18 1.04-.22 1.55-.56M307.36 210.5l-24.65-.05a.31.31 0 0 1-.16-.57l13.8-8.87a.3.3 0 0 1 .17-.05l24.86-.02a.31.31 0 0 1 .16.57l-14.01 8.94a.3.3 0 0 1-.17.05M279.61 211.86q.17-.26.41-.43.67-.45.56.34l-.08.59q-.07.57-.59.74-.66.22-1.35.09-.63-.12-.14-.54.56-.48 1.19-.79M303.13 213.33l-17.12 10.92a1.44 1.42-60.7 0 1-.76.22l-24.04-.03q-1.39 0-.22-.75l14.42-9.25q.44-.28.88-.01 3.91 2.42 6.29-1.16.34-.51.96-.51l19.43.01q1.03 0 .16.56M263.52 237.46l-8.96-8.9q-.49-.48.09-.85l3-1.89a.69.68 53 0 1 .88.13c.32.37.9.6 1.38.6q10.65-.05 21.02 0 1.57.01.25.85l-16.05 10.23a1.3 1.29 50.9 0 1-1.61-.17M496.41 229.14l11.33 11.31q.41.42.28 1l-8.63 37.5q-.13.59-.71.43-1.27-.34-1.26-1.59.13-16.46.04-30.08a1.45 1.42 23.2 0 0-.41-1l-3.57-3.61a.99.97-61.3 0 1-.26-.91l2.81-12.94q.09-.4.38-.11M252.44 229.53l9.62 9.58a.34.34 0 0 1-.05.53l-3.35 2.18a.34.34 0 0 1-.42-.04l-9.74-9.64a.34.34 0 0 1 .06-.53l3.46-2.13a.34.34 0 0 1 .42.05M252.33 245.45l-9.4-9.43a.48.48 0 0 1 .08-.74l3.04-2.01a.48.48 0 0 1 .61.06l9.44 9.44a.48.48 0 0 1-.08.74l-3.09 2.01a.48.48 0 0 1-.6-.07M240.9 237.11l9.42 9.36a.48.48 0 0 1-.08.74l-3.2 2.03a.48.48 0 0 1-.59-.07l-9.49-9.44a.48.48 0 0 1 .09-.76l3.27-1.93a.48.48 0 0 1 .58.07M227.02 246.74q-.37-.07-.46-.38-.15-.47.26-.73l7.02-4.53q.9-.59 1.66.17l8.9 8.86a.58.57-38.9 0 1-.1.89l-16.03 10.31a.44.43 73.7 0 1-.67-.37v-13.51a.73.72 5.9 0 0-.58-.71"/><path fill-opacity=".749" d="M497.36 286.37a.2.19 6.9 0 1 .19.24l-2.07 9.05q-.17.72-.69.2L483.97 285q-.38-.38-.31-.91.34-2.85.96-5.42 3.92-16.31 7.56-32.41.36-1.6 1.21-.19.47.79 1.3 1.21.57.3.57.94l.01 29.98q0 .5-.4.81c-3.93 3.02-2.63 7.24 2.49 7.36M203.28 267.34c-1.63 3.41.47 6.64 4.21 5.73 3.52-.85 3.31-5.55.44-7.07q-.47-.24-.46-.77l.01-6.53q0-.65.55-1.01l15.8-10.18a1.06 1.06 0 0 1 1.63.89l.01 13.64q0 1.05-.88 1.62l-35.3 22.62q-1.01.65-1.01-.55l.02-14.85q0-.58.49-.89l15.75-10.07q.68-.44.69.38l.01 4.68a1.33 1.32-22.8 0 1-.4.97q-.38.38-.85.63-.48.26-.71.76"/><circle cx="206.35" cy="269.48" r="1.61" fill-opacity=".749"/><path fill-opacity=".749" d="m186.04 272.44.16 15.67a.34.34 0 0 1-.16.29l-5.72 3.64a.34.34 0 0 1-.52-.29l-.01-15.76a.34.34 0 0 1 .16-.29l5.56-3.54a.34.34 0 0 1 .53.28M166.99 289.05c1.87-.9 3-3.34 1.68-5.24q-.46-.67.22-1.1l8.11-5.12q.72-.46.72.4l-.01 14.89q0 .81-.69 1.25l-9.97 6.43a.33.32-16.2 0 1-.5-.27v-10.53a.8.79-13.3 0 1 .44-.71"/><circle cx="496.45" cy="282.58" r="1.61" fill-opacity=".749"/><path fill-opacity=".749" d="M166.32 284.42a.26.26 0 0 1 .35.09l.06.1a1.8 1.45 59.1 0 1-.32 2.29l-.3.19a1.8 1.45 59.1 0 1-2.17-.8l-.06-.11a.26.26 0 0 1 .08-.35zM493.06 303.65l-11.45-11.43a.32.32 0 0 1-.08-.31l1.14-4.46a.32.32 0 0 1 .54-.14l11.42 11.43a.32.32 0 0 1 .09.31l-1.12 4.45a.32.32 0 0 1-.54.15M140.52 316.99l.03-15.9a.31.31 0 0 1 .14-.26l20.86-13.31a.31.31 0 0 1 .35.01l2.46 1.83a.31.31 0 0 1 .12.25l-.02 12.43a.31.31 0 0 1-.14.26L141 317.25a.31.31 0 0 1-.48-.26M476.37 314.46l4.52-19.18a.35.35 0 0 1 .58-.17l11.27 11.36a.35.35 0 0 1 .09.33l-4.33 19.36a.35.35 0 0 1-.59.17l-11.44-11.54a.35.35 0 0 1-.1-.33M115.55 322.12c1.8-.81 2.68-3.06 1.89-4.87q-.21-.48-.19-.98.02-.42.37-.65l19.96-12.74q.62-.4.62.34l-.01 15.32q0 .51-.43.79l-22.22 14.23a.39.39 0 0 1-.6-.33l.03-10.23a.98.97 78.8 0 1 .58-.88"/><path fill-opacity=".749" d="M114.73 317.48a.41.41 0 0 1 .57.12l.08.14a1.65 1.46 57.8 0 1-.35 2.17l-.27.17a1.65 1.46 57.8 0 1-2.12-.61l-.08-.14a.41.41 0 0 1 .12-.56zM484.72 343q-.28 1.47-1.23 2.41-.5.51-.49-.21l.15-11.8q0-.49-.35-.84l-7.82-7.85a1.99 1.98-61.3 0 1-.53-1.84l1.05-4.64q.26-1.15 1.1-.32l10.76 10.76q.4.4.27.95-1.62 6.66-2.91 13.38M51.39 374.28c-.52-1.03-1.12-2.32-2.22-2.8q-.45-.2-.45-.69l-.01-10.4q0-.52.44-.8l10.11-6.49q1.09-.7.29.32c-1.75 2.26-.67 5.72 2.37 6.02 3.83.37 4.14-2.35 4.08-5.28q-.01-.59.42-1.01 5-4.91 10.03-10.01 3.51-3.55 8.58-6.69 11.77-7.3 23.97-15.33a2.28 2.28 0 0 1 3.54 1.9l.02 10.49a1.73 1.72-24.5 0 1-.43 1.14q-2.46 2.83-5.66 4.77-.54.32-1.16.27c-1.91-.16-3.33.91-4.18 2.53q-.47.89-1.87 1.78-22.67 14.54-45.55 29.14-.82.53-1.5 1.25-.49.53-.82-.11"/><path fill-opacity=".749" d="M459.96 365.29V348.5a.5.5 0 0 1 .17-.37l10.56-9.19a.5.5 0 0 0 .15-.27l2.54-11.44a.49.49 0 0 1 .82-.24l6.67 6.69a.5.5 0 0 1 .14.34l-.05 13.66a.5.5 0 0 1-.17.37l-20.02 17.6a.49.49 0 0 1-.81-.36M70.15 346.23l.08.12a.17.17 0 0 1-.03.21l-5.91 5.53a.17.17 0 0 1-.12.05l-2.48-.12a.17.17 0 0 1-.09-.32l8.31-5.52a.17.17 0 0 1 .24.05M452.32 372.42l-.05-17.17a.34.34 0 0 1 .11-.25l4.8-4.34a.34.34 0 0 1 .57.26l-.03 17.16a.34.34 0 0 1-.11.25l-4.72 4.34a.34.34 0 0 1-.57-.25"/><circle cx="62.45" cy="355.75" r="1.59" fill-opacity=".749"/><path fill-opacity=".749" d="M449.25 375.58q-.04.07-.07.16-.06.16-.19.28-9.57 8.29-18.69 16.37a.92.91 48.9 0 1-1.31-.09q-2.04-2.4-4.69-4.8c-1.73-1.56-1.4-4.28-1.13-6.29q.1-.69.62-1.14l3.1-2.66q.52-.45.58.23c.53 5.98 9.34 4.29 7.08-1.85q-.15-.4-.5-.65l-2.12-1.51q-.43-.3-.04-.65l17.72-15.54a.36.36 0 0 1 .6.27v16.58q0 .49-.37.81-.14.11-.29.19-.18.11-.3.29M44.29 380.01l9.18-.15q.8-.01.24.56l-12.13 12.21a1.64 1.64 0 0 1-1.16.48q-12.55-.06-24.35 0-1.59.01-3.06-.84-3.54-2.05-7.09-3.82a.77.76 45.6 0 1 .01-1.38q1.05-.5 2.01-1.1 11.47-7.26 22.92-14.69.43-.28.42.24l-.04 1.92a1.08 1.07-10.7 0 1-.66.96c-3.74 1.54-1.71 8.05 2.71 6.8 3.06-.87 3.98-5.4.88-6.73a1.03 1.02 11.9 0 1-.62-.94l-.03-3.36q0-.6.51-.92 6.11-3.77 12.32-7.93a.09.09 0 0 1 .14.07q.03 4.9-.01 9.56 0 .28-.25.4-3.41 1.67-2.14 5.07.2.55.69.89.58.41.51 1.07-.06.53-.55.73-.38.15-.66.45-.42.46.21.45"/><circle cx="47.49" cy="374.88" r="1.65" fill-opacity=".749"/><ellipse fill-opacity=".749" rx="1.74" ry="1.56" transform="rotate(84.7 8.515 425.36)"/><ellipse fill-opacity=".749" rx="1.7" ry="1.56" transform="rotate(96.5 -152.315 203.255)"/><path fill-opacity=".749" d="m44.64 392.55 12.6-12.54a.34.34 0 0 1 .24-.1l11.78-.02a.34.34 0 0 1 .24.58l-12.63 12.69a.34.34 0 0 1-.24.1l-11.75-.13a.34.34 0 0 1-.24-.58M76.13 383.47l-9.73 9.66a.32.32 0 0 1-.22.09l-5.72.1a.32.32 0 0 1-.23-.55l12.81-12.75a.32.32 0 0 1 .22-.09l88.9-.02a.32.32 0 0 1 .23.54l-2.74 2.82a.32.32 0 0 1-.23.1l-83.07.01a.32.32 0 0 0-.22.09"/><path fill-opacity=".749" d="M129.35 392.26c-.3-1.28-2.08-2.87-3.45-2.85q-3.49.05-4.1 3.58-.11.66-.77.65l-7.46-.03a1.44 1.42 67.3 0 1-1.01-.42l-2.52-2.55q-.41-.42-.99-.42l-29.11-.01q-.61 0-1.1.35-1.31.91-2.34 2.06-.58.65-1.45.65l-4.99-.04q-.8 0-.23-.56l6.62-6.57q.46-.46 1.12-.46l81.99.01a1.89 1.87 22.1 0 0 1.34-.56l4.69-4.78q.37-.38.9-.38l23.89-.02a.38.38 0 0 1 .27.65l-13 13.02q-.34.34-.83.35c-15.53.37-31.52-.5-46.73-.25a.73.73 0 0 1-.73-.87q.05-.28-.01-.55M220.19 380.46l-13.74 13.67a.32.32 0 0 1-.23.09l-25.11-.33a.32.32 0 0 1-.22-.55l13.41-13.33a.32.32 0 0 1 .22-.09l25.44-.01a.32.32 0 0 1 .23.55M251.12 389.16l-4.86 4.72q-.38.37-.91.37h-35.14q-.85 0-.25-.6l13.35-13.31q.37-.37.89-.37 9.54-.09 19.03-.03a.04.04 0 0 1 .03.06q-1.86 2.34-3.89 4.38-.18.17-.41.12-5.18-1.14-5.63 3.7c-.37 3.88 5.94 4.79 7.48.81.37-.93.09-1.57-.06-2.47q-.1-.59.35-.99c1.48-1.34 3.73-3.07 4.16-5.1q.11-.55.67-.55l5.16.01a.43.43 0 0 1 .43.43l.02 7.83q0 .58-.42.99"/><path fill-opacity=".749" d="m253.99 388.46.01-7.99q0-.61.62-.6l3.19.08q.68.02.66.7-.1 4.29.02 9.09c.05 1.97-1.37 3.25-2.8 4.25a1.36 1.35 27.4 0 1-.83.26l-4.72-.02q-1.14 0-.32-.8l3.53-3.45a2.13 2.1 68.2 0 0 .64-1.52M267.71 400.26l-.37-19.94a.42.42 0 0 1 .43-.43l3.88.08a.42.42 0 0 1 .41.42l.03 16.34a.42.42 0 0 1-.12.3l-3.54 3.52a.42.42 0 0 1-.72-.29"/><path fill-opacity=".749" d="M282.02 381.54q.29.08.48.32.22.27.23.62.06 2.93-.27 6.33-.06.56-.59.73-1.39.43-1.96 1.78-1.49 3.45 1.97 5.21.39.2.37.63l-1.27 41.64q-.01.57-.58.64c-4.03.46-5.22 5.11-1.45 7.22q.52.28.52.87l.01 14.96q0 1.05-.65.23l-10.56-13.36a6.64 6.63 48.8 0 1 .59-8.88l3.98-3.85a1.28 1.28 0 0 1 .95-.35q4.37.24 4.49-3.93c.15-5.2-9.08-4.89-6.93 2.03q.15.47-.2.83l-2.97 3.07q-.93.96-.93-.37l-.02-14.12a1.98 1.95-22.5 0 1 .59-1.4l6.82-6.74a1.02 1.01 31.5 0 1 1.04-.24q4.08 1.4 5.23-2.56c1.34-4.6-5.33-6.32-7.1-2.44-.43.95-.16 1.88-.29 2.85a1.5 1.45-19.1 0 1-.42.83l-4.68 4.66q-1.29 1.28-1.23-.53l.4-13.4a1.09 1.04 70.3 0 1 .32-.72l5.21-5.1a3.26 3.22 68.1 0 0 .97-2.32l-.01-15.9q0-.89.89-.88l5.89.03q.48.01.63.46.05.15.02.32-.14.66.51.83M259.09 393.65c1.15-.74 1.65-1.57 1.63-2.95q-.08-5.23-.03-10.24.01-.53.54-.53l3.47-.02q.55 0 .55.54v13.3q.01.5-.5.5l-5.49-.02q-1.07 0-.17-.58M427.93 394.54l-5.77 4.92a.32.32 0 0 1-.44-.02l-8.94-9.11a.32.32 0 0 1 .02-.46l7.7-6.91a.32.32 0 0 1 .54.24l-.02 3.87a.32.32 0 0 0 .1.22l6.83 6.77a.32.32 0 0 1-.02.48"/><circle cx="237.04" cy="387.94" r="1.63" fill-opacity=".749"/><path fill-opacity=".749" d="M124.43 393.65a.41.41 0 0 1-.42-.39l-.01-.18a1.51 1.38 87.7 0 1 1.32-1.56l.32-.02a1.51 1.38 87.7 0 1 1.44 1.46v.18a.41.41 0 0 1-.39.42z"/><ellipse fill-opacity=".749" rx="1.35" ry=".39" transform="rotate(89.9 -55.758 337.741)"/><path fill-opacity=".749" d="m410.41 409.29-8.93-8.99a.42.42 0 0 1 .02-.61l8.95-7.97a.42.42 0 0 1 .58.02l9 9.07a.42.42 0 0 1-.02.61l-9.02 7.89a.42.42 0 0 1-.58-.02"/><rect width="30.32" height=".86" x="-15.16" y="-.43" fill-opacity=".749" rx=".26" transform="rotate(.4 -56234.17 13731.1)"/><path fill-opacity=".749" d="m400.17 402.07 8.61 8.62q.29.29-.02.57l-8.89 7.85a.51.5 47.1 0 1-.7-.03l-5.03-5.14q-.3-.31-.14-.7 1.06-2.59-1.61-4.58-.63-.46-.04-.98l6.43-5.65a1.02 1.01-43.1 0 1 1.39.04"/><circle cx="277.33" cy="411.96" r="1.56" fill-opacity=".749"/><circle cx="390.5" cy="411.93" r="1.6" fill-opacity=".749"/><path fill-opacity=".749" d="M389.3 428.04a.48.47 57.8 0 0-.17.77q1.96 2.07 3.86 4.51c.5.63.41 1.38.79 1.92q8.53 12.4 33.23 47.63.61.86-.45.87l-4.78.03q-1.05.01-1.76-.72-6.27-6.39-12.44-12.45-.42-.41-.32-.99c.89-4.77-4.94-6.94-7.06-2.56a.6.6 0 0 1-1.03.09l-5.83-8.29a.94.94 0 0 1 .11-1.22l2.64-2.57q.52-.5 1.23-.38c3.23.55 5.79-2.61 4.08-5.58-2.29-4-8.19-1.29-6.72 3.27a1.51 1.5 62.6 0 1-.52 1.65q-1.13.86-2.03 2.02-.41.51-.78-.02l-21.47-30.6q-.15-.22.07-.38l3.46-2.38q.22-.16.42.04 6.58 6.81 12.5 12.47 1.07 1.02.55 2.34-.2.5-.1 1.03c.57 2.86 3.79 4.32 6.13 2.36 2.99-2.5.21-7.85-3.38-6.5q-.77.29-1.36-.29l-12.26-12.25a.74.74 0 0 1 .14-1.16q5.47-3.35 10.01-7.42.57-.52.96.15c.92 1.56 2.71 2.99 4.62 2.18q.68-.29 1.21.23l4.58 4.49a.68.68 0 0 1-.04 1q-2.35 1.97-4.61 3.86c-1.19.99-1.95 2.27-3.48 2.85"/><circle cx="274.67" cy="432.53" r="1.62" fill-opacity=".749"/><circle cx="390.5" cy="438.01" r="1.54" fill-opacity=".749"/><path fill-opacity=".749" d="M281.68 444.05a.47.47 0 0 1-.3.6l-.16.05a1.86 1.4-18.3 0 1-2.21-.75l-.11-.34a1.86 1.4-18.3 0 1 1.32-1.91l.16-.06a.47.47 0 0 1 .6.3zM309.35 501.46l-27.44-34.79a1.5 1.5 0 0 1-.32-.93l.04-18.27q0-.75.72-.95.35-.1.62-.35.43-.39.79.06l26 33.03q.32.41.32.93l.01 21.01q0 1.19-.74.26"/><circle cx="398.15" cy="451" r="1.6" fill-opacity=".749"/><circle cx="403.63" cy="468.47" r="1.66" fill-opacity=".749"/><path fill-opacity=".749" d="m429.13 486.06 3.83 5.17a.11.11 0 0 1-.14.17q-4.31-2.14-6.07 1.07-1.48 2.71 1 4.82c1.13.97 2.61.62 3.96.49a.9.88-21.7 0 1 .79.33q1.27 1.57 2.67 2.83.98.88.62 2.2a2.28 2.27-57.9 0 0 .47 2.07q2.71 3.14 5.67.87.85-.65 1.46.22l3.41 4.87a2.37 2.35-62.8 0 1 .43 1.36l-.02 19.87a.87.87 0 0 0 .94.87q.17-.02.33-.02a.79.79 0 0 0 .77-.79l-.02-15.72q0-2.35 1.27-.38 1.95 3.01 4.52 6.54c1.47 2.01.82 3.73.98 5.99.07 1-.22 1.57-1.16 2.05q-3.54 1.81-6.96 3.7a1.24 1.23 57.9 0 1-1.61-.37q-7.44-10.75-14.63-20.91c-1.46-2.06.42-3.48-1.85-5.84-3.38-3.49-6.9-6.47-9.74-10.57q-8-11.57-16.8-23.99-.37-.51.24-.67l1.61-.42q.6-.15 1.03.28l13.26 13.29a1.44 1.42 67.3 0 0 1.01.42l8.36.01a.47.45 71.3 0 1 .37.19M326.85 511.27l-4.66 4.66q-.82.82-1.54-.09l-7.55-9.61q-.95-1.2-.97-2.73-.12-9.69.06-20.25 0-.27.22-.46.42-.36.58.17.22.73.69 1.32 6.88 8.66 13.22 16.79.33.42.33.95l-.01 8.34q0 .53-.37.91"/><path fill-opacity=".749" d="m433.46 495.95.16-3.51q.01-.14.09-.03l4.62 6.65a.41.4 67.6 0 1-.26.63l-.37.07a1.09 1.09 0 0 1-.97-.29l-3.07-3a.69.66 25.3 0 1-.2-.52"/><circle cx="429.99" cy="494.31" r="1.6" fill-opacity=".749"/><path fill-opacity=".749" d="M440.07 504.67q-.95.29-1.63-.35a1.55 1.54-30.5 0 1 .68-2.62q1.23-.31 1.82 1.19.53 1.35-.87 1.78M329.31 511.23l.11-6.24q.02-.75.48-.15l6.37 8.17q.34.44-.03.85-2.47 2.68-5.21 5.18c-2.12 1.94-1.45 4.5-1.49 7.07q-.02.99-.63.21l-5.82-7.53q-.3-.39.05-.73l5.66-5.62q.5-.5.51-1.21"/><path fill-opacity=".749" d="m338.27 515.5 13.89 17.65a.34.34 0 0 1-.06.48l-10.44 8.23a.34.34 0 0 1-.48-.06l-9.44-11.88a.34.34 0 0 1-.07-.21l-.01-8.03a.34.34 0 0 1 .1-.24l6-5.97a.34.34 0 0 1 .51.03M145.18 552.17q4.51-2.41 10.6-2.41 26.15-.02 50.7 0 .26 0 .26.26l.05 12.98a.48.47-90 0 1-.47.48q-24.7.1-49.87-.03c-7.31-.04-10.07 4.36-10.06 11.06q.02 24.48.02 48.62a.87.87 0 0 1-.87.87l-12.26-.01a.45.45 0 0 1-.45-.45q-.01-24.96-.01-50.3 0-14.47 12.36-21.07M318.87 570.06q.2.43.2.94-.03 25.62.02 51.98a.99.99 0 0 1-.99 1l-12.27.02a.6.6 0 0 1-.6-.61q.35-22.66-.05-51.08c-.06-4.75-3.8-8.81-8.64-8.81H245.5q-.74 0-.74-.74l-.01-12.49q0-.51.51-.51 27.65-.04 52.52.03 2.41.01 6.07 1.17c8.4 2.67 13.67 9.32 14.76 18.13q.06.51.26.97M410.83 603.32c4.6 5.48 6.38 11.55 6.22 19q-.14 6.79-.02 14.61a.57.57 0 0 1-.57.58l-12.92.01a.36.36 0 0 1-.36-.37q.22-9.86-.06-17.57c-.19-5.08-3.6-10.23-9.09-10.2q-20.63.1-41.72-.05-.56-.01-.56-.57v-12.48q0-.5.5-.5 17.01-.07 41.41.02c3.97.02 7.1-2.64 8.61-6.18q.98-2.3 1.01-6.21.03-6.14-.06-11.13-.1-4.88-3.91-7.44-2.12-1.42-6.09-1.4-25.03.13-49.76.04a.46.45 0 0 1-.46-.45v-12.58q0-.74.75-.74 21.37.16 45.13-.04 8.95-.07 12.92 1.29 7.49 2.56 11.74 9.25c2.66 4.18 3.67 8.68 3.49 13.63-.21 6.19.73 13.13-1.1 18.73q-1.7 5.2-5.1 9.18-.67.78 0 1.57M445.32 603.7q-2.72-10.99-6.12-23.14-2.17-7.79-6.05-13.39-1.98-2.86-5.27-3.7-.54-.14-.55-.71l-.03-12.5q0-.55.55-.52c9.14.57 15.15 6.15 19.14 14.07q3.68 7.3 5.72 14.73 3.94 14.3 7.8 29.26 1.13 4.4 4.12 10.74c.88 1.89 1.86 2.77 3.01 4.3 2.04 2.7 5.68 2.13 7.65-.31q3.1-3.86 4.91-9.1 3.37-9.7 5.61-19.88 2.63-11.94 6.71-23.1 2.39-6.57 6.28-11.9 6.1-8.34 16.13-8.83a.55.54 88.5 0 1 .57.55v12.53q0 .55-.54.65c-5.4.99-8.42 7.85-10.08 12.61q-2.47 7.03-4.03 13.62-2.14 9.07-4.57 17.74-2.57 9.16-6.13 16.75c-2.75 5.85-8 11.88-14.6 13.13-14.09 2.66-21.54-7.58-25.81-19.25q-2.68-7.32-4.42-14.35M599.49 624.76l.03 12.06q0 .73-.72.72-24.11-.13-50.11.04-5.57.04-9.11-1.28-9.51-3.52-12.78-12.94-1.53-4.38-1.37-11.45.55-23.86.05-47.44-.02-.68.66-.69l11.53-.13a1.77 1.76-87.5 0 0 1.74-1.6q.53-5.67-.03-11.65-.06-.67.62-.67 25.04.09 49.4-.02c10.22-.05 18.95 4.38 22.55 14.42q1.45 4.03 1.41 9.88-.16 26.57-.02 49.32a.65.64 89.6 0 1-.64.66l-12.46.01q-.75 0-.75.76m-59.32-61.12a1.19 1.19 0 0 0-1.08.87q-.43 1.56-.4 3.16.39 24.87.28 46.78c-.03 4.88 3.49 9.54 8.67 9.54q27.81.03 51.31.01.58 0 .58-.58.23-23.76-.1-52.18c-.04-4.09-4.25-7.79-8.28-7.78q-21.56.07-40.39-.07-5.4-.04-10.59.25M692.55 550.06c12.52 2.5 18.43 13 18.92 25.24q.03.7-.68.7l-12.3.01a.71.7-90 0 1-.7-.71c.03-4.02-2.28-8.74-5.84-10.75q-1.88-1.06-5.12-1.06l-48.6.02q-.73 0-.72-.73l.04-12.52q0-.5.5-.5 26.06-.02 51.71.02 1.39 0 2.79.28"/><rect width="13.74" height="13.68" x="-6.87" y="-6.84" fill-opacity=".749" rx=".5" transform="rotate(.1 -326811.236 122829.472)"/><path fill-opacity=".749" d="M253.01 637.55c-13.2.04-22.08-9.62-22.1-22.89q-.04-24.69-.03-50.31 0-.61.61-.61l12.49.01q.67 0 .67.67-.05 23.6-.05 50.24 0 5.32 4.31 8.01 2.19 1.38 5.61 1.37 26.02-.07 49.9-.07.58 0 .58.58l-.01 12.46a.51.51 0 0 1-.51.51q-25.28-.05-51.47.03"/><rect width="13.6" height="73.76" x="329.39" y="563.75" fill-opacity=".749" rx=".3"/><path fill-opacity=".749" d="M697.87 623.37q.12-6.34.07-12.85-.05-5.96-4.3-8.64-2.05-1.3-4.03-1.32-21.7-.16-42.02 0-5.8.04-9.71-1.41-10.04-3.71-13.1-13.76c-1.93-6.34-1.05-14.13-1.2-21.02q-.01-.63.62-.63h12.59q.39 0 .41.4.19 5.16-.02 11.51-.12 3.82.9 6.11c1.29 2.91 4.56 5.03 7.86 5.02q23.07-.04 43 0 1.96 0 4.02.44c2.08.44 3.96.64 5.94 1.61q12.09 5.95 12.58 19.98.24 7.18.11 14.52-.01.63-.64.64l-12.7.04q-.5 0-.5.5v12.68a.35.35 0 0 1-.35.35q-26.85-.1-53.29-.02c-3.58.01-7.79-1.8-10.68-4.03q-7.14-5.52-8.98-14.94-.59-2.98-.9-6.35-.07-.71.65-.71l12.53.01q.51 0 .53.51c.26 6.18 3.89 12.05 10.5 12.04q27.12-.06 49.46-.04.64 0 .65-.64M206.99 623.57l.05-7.89a.43.43 0 0 1 .43-.43h12.85a.43.43 0 0 1 .43.43v21.39a.43.43 0 0 1-.43.43h-73.15a.43.43 0 0 1-.43-.43l.02-12.63a.43.43 0 0 1 .43-.43l59.37-.01a.43.43 0 0 0 .43-.43M572.77 656.56a.93.93 0 0 0-.95.93c-.03 5.59.41 11.26-.15 16.8q-.05.51-.45.85-.42.36-.98.2-.72-.21-.75-.96-.3-8.26-.14-16.98a.6.6 0 0 0-.6-.61l-4.93-.04q-.96-.01-1.1-.96-.04-.23.04-.43a1.93 1.83-79 0 1 1.79-1.28l12.61.26q1.29.03 1.15 1.31l-.03.26a.83.82 3.9 0 1-.83.72z"/><path d="M651.37 672.17q1 1.05 2.58 1.03a.8.8 0 0 1 .81.82l-.01.42q-.01.6-.61.57-5.51-.28-5.39-5.44.17-7.46.05-14.2-.01-1.03.99-.8.39.08.67.46.52.69.52 1.54v14.64q.01.56.39.96"/><circle cx="693.02" cy="656.31" r="1.32"/><path d="M583.21 668.65a.75.74-13 0 0-.68 1.08q2.64 5.27 8.79 2.68a.51.51 0 0 1 .69.32l.09.3a1.13 1.13 0 0 1-.62 1.37c-4.53 2.08-10.6-.19-11.2-5.59-.59-5.25 3.32-8.94 8.48-8.36q4.01.45 5.63 4.14l.38.85q1.48 3.39-2.22 3.34zm-.46-1.51 10.24.12a.16.16 0 0 0 .16-.16v-.07a5.1 4.79.7 0 0-5.04-4.85h-.36a5.1 4.79.7 0 0-5.16 4.73v.07a.16.16 0 0 0 .16.16M620.22 662.31c-6.86.13-4.97 8.07-5.27 12.22q-.06.78-.84.7l-.36-.04a.56.55 2.3 0 1-.5-.54q-.07-2.9-.12-6.08c-.07-5.07 2.89-8.97 8.27-8.04 6.64 1.15 6.03 8.03 5.67 13.92a.74.73 87.6 0 1-.62.68q-.87.14-1.35-1.32a1.22 1.06 40.9 0 1-.06-.42c.07-3.71 1.27-11.2-4.82-11.08M645.18 667.77a7.42 7.42 0 0 1-7.42 7.42 7.42 7.42 0 0 1-7.42-7.42 7.42 7.42 0 0 1 7.42-7.42 7.42 7.42 0 0 1 7.42 7.42m-1.98 0a5.49 5.49 0 0 0-5.49-5.49 5.49 5.49 0 0 0-5.49 5.49 5.49 5.49 0 0 0 5.49 5.49 5.49 5.49 0 0 0 5.49-5.49"/><rect width="2.02" height="15.02" x="-1.01" y="-7.51" rx=".95" transform="rotate(-.2 191636.885 -198210.133)"/><path d="M609.21 671.5q.58-.38.93.22l.18.31a.95.95 0 0 1-.26 1.25q-5.4 3.95-10.35-.21c-2.73-2.31-2.83-7.07-.66-9.82q2.9-3.67 8.05-2.59c1.18.24 3.27 1.26 3.24 2.69q-.01.37-.21.68-.36.54-.85.11c-2.85-2.54-7.28-2.59-9.1 1.1q-1.43 2.91.06 5.24 3.12 4.86 8.97 1.02M671.53 667.77a7.44 7.44 0 0 1-7.44 7.44 7.44 7.44 0 0 1-7.44-7.44 7.44 7.44 0 0 1 7.44-7.44 7.44 7.44 0 0 1 7.44 7.44m-1.96-.01a5.5 5.5 0 0 0-5.5-5.5 5.5 5.5 0 0 0-5.5 5.5 5.5 5.5 0 0 0 5.5 5.5 5.5 5.5 0 0 0 5.5-5.5M686.52 673.99a.54.54 0 0 0-.79-.29q-5.13 3.14-9.47-.42c-2.59-2.13-3.11-6.62-1.37-9.35 4.85-7.61 16.6-2.26 12.97 7.25q-.22.59-.03 1.19c1.3 4.13.95 8.47-4.29 8.62-1.63.05-3.41-.24-4.9.53q-.63.33-1.34.49-.69.15-.71-.55c-.04-1.3 1.08-2.04 2.24-2.01q2.96.08 5.79-.4.53-.09.91-.47 1.89-1.91.99-4.59m.27-6.23a5.5 5.5 0 0 0-5.5-5.5 5.5 5.5 0 0 0-5.5 5.5 5.5 5.5 0 0 0 5.5 5.5 5.5 5.5 0 0 0 5.5-5.5M709.52 673.37q-4.55 3.21-8.98.56c-4.65-2.78-4.05-10.56.78-12.77 5.39-2.48 11.07 1.24 10.62 7.27q-.25 3.35.02 6.28a.55.55 0 0 1-.76.56q-1.19-.5-1.19-1.64 0-.6-.49-.26m.61-5.61a5.47 5.47 0 0 0-5.47-5.47 5.47 5.47 0 0 0-5.47 5.47 5.47 5.47 0 0 0 5.47 5.47 5.47 5.47 0 0 0 5.47-5.47"/></svg>